<?xml version="1.0" encoding="UTF-8"?>
<!-- Generator: Adobe Illustrator 16.0.0, SVG Export Plug-In . SVG Version: 6.00 Build 0)  -->
<!DOCTYPE svg PUBLIC "-//W3C//DTD SVG 1.1//EN" "http://www.w3.org/Graphics/SVG/1.1/DTD/svg11.dtd">
<svg version="1.1" id="Camada_1" xmlns="http://www.w3.org/2000/svg" xmlns:xlink="http://www.w3.org/1999/xlink" x="0px" y="0px" width="612px" height="459px" viewBox="10 171 612 459" enable-background="new 10 171 612 459" xml:space="preserve">
<path fill="#1E64B0" d="M505.023,608.257c-7.766-1.127-12.729-8.609-10.3-16.212c1.468-4.563,4.891-7.217,9.47-8.284  c3.111-0.726,6.298-0.622,9.381,0.237c4.919,1.363,9.084,5.779,9.099,11.767c0.015,5.705-3.928,10.625-9.114,12.137  c-0.756,0.223-1.569,0.208-2.267,0.607c-1.586,0-3.156,0-4.742,0C506.09,608.152,505.498,608.523,505.023,608.257z"/>
<path fill="#1E64B0" d="M433.894,608.257c-7.766-1.127-12.729-8.609-10.299-16.212c1.468-4.563,4.891-7.217,9.47-8.284  c3.111-0.726,6.298-0.622,9.38,0.237c4.92,1.363,9.084,5.779,9.099,11.767c0.016,5.705-3.927,10.625-9.113,12.137  c-0.756,0.223-1.569,0.208-2.267,0.607c-1.586,0-3.157,0-4.742,0C434.96,608.152,434.367,608.523,433.894,608.257z"/>
<path fill="#1E64B0" d="M223.763,608.257c-7.765-1.127-12.729-8.609-10.299-16.212c1.467-4.563,4.89-7.217,9.469-8.284  c3.112-0.726,6.298-0.622,9.38,0.237c4.92,1.363,9.084,5.779,9.099,11.767c0.015,5.705-3.927,10.625-9.114,12.137  c-0.756,0.223-1.571,0.208-2.267,0.607c-1.586,0-3.157,0-4.742,0C224.83,608.152,224.237,608.523,223.763,608.257z"/>
<path fill="#1E64B0" d="M401.633,608.227c-2.934-0.252-5.883,0.208-8.816-0.252c-0.016,0-0.029-0.089-0.074-0.191  c0.415-0.37,0.993-0.281,1.481-0.4c1.526-0.37,2.18-1.065,2.342-2.638c0.045-0.488,0.045-0.992,0.045-1.481  c0-5.038,0-10.077,0-15.101c0-1.822-1.156-3.23-2.964-3.646c-0.297-0.073-0.712,0.104-0.859-0.354  c0.074-0.355,0.37-0.281,0.578-0.281c2.667-0.015,5.335,0.029,8.002-0.03c0.756-0.015,1.156,0.387,1.586,0.875  c3.615,4.119,7.246,8.226,10.892,12.314c0.444,0.504,0.83,1.081,1.438,1.48c0.341-0.385,0.178-0.8,0.191-1.154  c0.016-2.712,0.016-5.425,0-8.15c0-0.682-0.06-1.379-0.147-2.061c-0.237-1.689-0.963-2.387-2.667-2.652  c-0.326-0.06-0.712,0.089-0.964-0.237c-0.029-0.028-0.016-0.089-0.029-0.133c1.097-0.371,7.425-0.371,8.684,0.016  c-0.324,0.519-0.889,0.386-1.304,0.504c-1.317,0.415-1.882,1.008-2.03,2.399c-0.06,0.533-0.073,1.082-0.073,1.63  c0,6.27,0,12.537,0,18.807c0,0.341,0.06,0.682,0.104,1.021c-0.296,0-0.593,0-0.889,0c-2.282-1.318-3.66-3.557-5.379-5.424  c-3.335-3.616-6.596-7.306-9.914-10.937c-0.728-0.801-1.378-1.659-2.148-2.46c-0.415,0.43-0.223,0.89-0.223,1.288  c-0.016,4.136-0.016,8.284-0.016,12.419c0,2.52,0.37,3.022,2.815,3.778c0.281,0.089,0.578,0.133,0.815,0.326  c0.222,0.163,0.311,0.399,0.163,0.637C402.107,608.39,401.87,608.39,401.633,608.227z"/>
<path fill="#1E64B0" d="M567.588,608.257c-0.37-0.119-0.756-0.223-1.126-0.355c-3.349-1.229-5.038-3.452-5.098-7.023  c-0.074-4.09-0.029-8.195-0.044-12.285c0-0.739-0.017-1.48-0.104-2.208c-0.163-1.215-0.711-1.688-1.911-1.882  c-0.46-0.074-0.979,0.119-1.512-0.385c1.2-0.489,2.356-0.193,3.468-0.237c1.187-0.06,2.371-0.015,3.558-0.015  c1.141,0,2.267-0.017,3.407,0c1.142,0.028,2.282-0.104,3.676,0.133c-0.622,0.606-1.126,0.43-1.57,0.46  c-1.867,0.118-2.431,0.593-2.46,2.386c-0.104,5.127-0.163,10.271,0.029,15.396c0.104,2.667,1.703,4.268,4.37,4.489  c1.23,0.104,2.477,0.104,3.66-0.341c2.104-0.786,3.453-2.237,3.839-4.489c0.163-0.92,0.297-1.854,0.297-2.786  c0-3.705,0-7.409,0-11.101c0-0.398-0.016-0.8-0.074-1.186c-0.237-1.394-0.935-2.061-2.326-2.312c-0.46-0.089-0.979,0.09-1.395-0.311  c0.92-0.43,7.544-0.504,9.101-0.134c-0.074,0.519-0.504,0.354-0.801,0.386c-1.941,0.236-2.728,0.992-2.771,2.948  c-0.059,2.814-0.015,5.632-0.044,8.432c-0.029,1.72-0.134,3.453-0.178,5.172c-0.104,3.172-1.809,5.217-4.564,6.521  c-0.622,0.297-1.304,0.46-1.956,0.682c-0.191,0.148-0.415,0.104-0.622,0.119c-0.488,0.073-1.008-0.163-1.467,0.147  c-1.082,0-2.179,0-3.261,0c-0.459-0.312-0.979-0.09-1.452-0.147C568.003,608.346,567.781,608.375,567.588,608.257z"/>
<path fill="#1E64B0" d="M536.188,608.509c0.029-2.46,0.045-4.935,0.074-7.395c0-0.341,0-0.697,0.016-1.038  c0-0.207,0.073-0.399,0.296-0.444c0.267-0.06,0.46,0.061,0.549,0.341c0.146,0.476,0.311,0.935,0.488,1.395  c1.29,3.245,3.646,5.201,7.084,5.809c1.512,0.268,2.964,0.061,4.268-0.771c1.985-1.274,2.193-3.469,0.533-5.144  c-0.711-0.711-1.57-1.2-2.46-1.63c-1.688-0.813-3.395-1.57-5.082-2.399c-1.379-0.683-2.684-1.452-3.766-2.578  c-2.606-2.729-2.519-6.551,0.312-9.056c2.683-2.371,5.839-2.667,9.158-1.764c0.902,0.237,1.748,0.652,2.638,0.948  c1.363,0.46,1.586,0.355,2.269-1.007c0.104-0.193,0.222-0.312,0.43-0.342c0.385,0.207,0.311,0.577,0.325,0.903  c0.045,2.075,0.089,4.149,0.104,6.209c0,0.341,0.207,0.904-0.371,0.948c-0.519,0.045-0.487-0.52-0.593-0.874  c-0.593-1.971-1.732-3.512-3.438-4.653c-1.541-1.037-3.245-1.393-5.068-1.17c-0.593,0.073-1.155,0.267-1.675,0.562  c-1.985,1.171-2.224,3.229-0.52,4.771c0.667,0.608,1.423,1.053,2.238,1.438c1.646,0.771,3.319,1.525,4.964,2.312  c1.245,0.592,2.46,1.274,3.542,2.134c3.482,2.741,3.571,7.335,0.222,10.239c-1.096,0.948-2.386,1.571-3.764,2.001  c-0.178,0.147-0.385,0.118-0.593,0.118c-0.4,0.06-0.83-0.133-1.187,0.147c-1.082,0-2.178,0-3.26,0  c-0.297-0.267-0.667-0.104-0.993-0.147c-0.637-0.044-1.26-0.192-1.821-0.459c-1.482-0.667-2.815-0.593-3.986,0.606  C536.78,608.509,536.483,608.509,536.188,608.509z"/>
<path fill="#1E64B0" d="M161.569,608.509c-0.015-2.668-0.015-5.335-0.029-7.987c0-0.147,0-0.297,0.015-0.444  c0.015-0.207,0.044-0.385,0.296-0.431c0.222-0.044,0.4,0.074,0.474,0.269c0.163,0.414,0.267,0.844,0.43,1.259  c1.289,3.364,3.675,5.409,7.247,6.031c1.304,0.223,2.578,0.045,3.749-0.533c2.445-1.2,2.786-3.705,0.815-5.557  c-0.696-0.652-1.511-1.111-2.356-1.513c-1.645-0.784-3.305-1.541-4.95-2.342c-1.245-0.606-2.43-1.304-3.453-2.252  c-3.156-2.92-2.979-7.262,0.459-9.84c2.652-1.985,5.631-2.179,8.728-1.304c0.845,0.235,1.66,0.622,2.504,0.902  c1.393,0.476,1.645,0.371,2.312-0.934c0.089-0.178,0.163-0.355,0.385-0.399c0.326,0.073,0.311,0.341,0.311,0.577  c0.074,2.119,0.148,4.238,0.222,6.357c0.015,0.252,0,0.488,0,0.741c0,0.223-0.104,0.385-0.326,0.415  c-0.207,0.028-0.4-0.03-0.474-0.253c-0.133-0.37-0.237-0.756-0.37-1.126c-1.23-3.498-4.564-5.689-8.136-5.38  c-1.126,0.104-2.104,0.52-2.86,1.378c-0.949,1.082-0.963,2.388-0.03,3.482c0.682,0.801,1.556,1.379,2.49,1.823  c1.467,0.695,2.963,1.349,4.431,2.045c1.468,0.695,2.904,1.467,4.223,2.444c3.512,2.594,3.616,7.559,0.208,10.344  c-1.17,0.948-2.46,1.631-3.927,1.957c-0.178,0.044-0.341,0.162-0.519,0.251c-1.482,0-2.964,0-4.446,0  c-0.222-0.223-0.519-0.134-0.785-0.147c-0.727-0.119-1.482-0.163-2.149-0.519c-1.378-0.712-2.563-0.489-3.586,0.666  C162.162,608.509,161.865,608.509,161.569,608.509z"/>
<path fill="#1E64B0" d="M265.286,608.227c-0.845-0.252-1.719-0.459-2.549-0.756c-8.625-3.082-11.248-13.885-3.438-20.494  c4.312-3.646,9.38-4.342,14.774-2.934c0.949,0.252,1.882,0.577,2.845,0.814c1.26,0.325,1.601,0.162,2.312-0.935  c0.163-0.252,0.252-0.578,0.622-0.488c0.385,0.09,0.296,0.459,0.296,0.74c0.015,2.327,0.015,4.64,0,6.965  c0,0.281,0.06,0.652-0.355,0.683c-0.355,0.029-0.489-0.268-0.578-0.562c-0.074-0.236-0.163-0.46-0.251-0.697  c-2.282-5.631-9.232-7.35-13.9-3.467c-1.763,1.481-2.549,3.482-2.979,5.646c-0.563,2.757-0.311,5.498,0.445,8.195  c1.274,4.549,4.564,6.371,9.247,5.972c2.608-0.224,4.787-1.438,6.698-3.172c0.355-0.312,0.607-0.771,1.171-0.89  c0.341,1.156,0.015,1.956-0.949,2.667c-1.719,1.29-3.586,2.253-5.69,2.742c-0.178,0.133-0.4,0.104-0.593,0.118  c-0.4,0.06-0.83-0.133-1.186,0.148c-1.186,0-2.371,0-3.556,0c-0.474-0.312-1.008-0.09-1.512-0.148  C265.863,608.331,265.552,608.435,265.286,608.227z"/>
<path fill="#1E64B0" d="M611.525,601.41c-0.104,1.867-0.325,3.733-0.593,5.587c-0.163,1.141-0.163,1.155-1.349,1.155  c-6.328,0-12.641,0-18.969,0c-0.992,0-1.971,0-2.964,0c-0.236,0-0.503,0.045-0.666-0.355c0.267-0.311,0.666-0.207,1.021-0.237  c2.104-0.178,2.712-0.771,2.728-2.858c0.028-5.824,0.015-11.662,0-17.486c-0.016-2.03-0.623-2.623-2.639-2.771  c-0.354-0.029-0.801,0.163-1.142-0.386c1.216-0.415,2.416-0.134,3.586-0.191c1.186-0.045,2.371-0.017,3.557-0.017  c1.23,0,2.476-0.015,3.705,0c1.142,0.017,2.297-0.104,3.675,0.135c-0.593,0.606-1.097,0.43-1.541,0.459  c-2,0.104-2.683,0.74-2.696,2.712c-0.029,5.734-0.029,11.455,0,17.189c0.016,1.911,0.475,2.355,2.355,2.4  c1.334,0.029,2.667,0.015,4.001,0.015c2.668-0.015,4.594-1.26,5.898-3.557c0.533-0.948,0.948-1.956,1.289-2.979  c0.178-0.533,0.443-0.726,0.978-0.606c0,0.191,0,0.399,0,0.593C611.438,600.565,611.748,601.04,611.525,601.41z"/>
<path fill="#FFFFFF" d="M401.633,608.227c0.163-0.089,0.415-0.059,0.476-0.296c0.059-0.252-0.135-0.325-0.342-0.341  c-0.045,0-0.104,0-0.147-0.015c-2.993-0.504-3.558-1.156-3.558-4.164c0-4.831,0-9.662,0-14.479c0.52-0.178,0.652,0.252,0.846,0.476  c5.75,6.372,11.499,12.744,17.249,19.116c-4.847,0-9.678,0-14.522,0C401.633,608.42,401.633,608.315,401.633,608.227z"/>
<path fill="#F6F7FC" d="M537.076,608.509c0.963-1.571,1.63-1.823,3.274-1.245c0.89,0.312,1.765,0.652,2.639,0.963  c0.104,0.061,0.133,0.119,0.104,0.179c-0.028,0.06-0.06,0.089-0.104,0.089C541.033,608.509,539.047,608.509,537.076,608.509z"/>
<path fill="#F5F6FB" d="M162.458,608.509c0.593-1.423,1.423-1.823,2.875-1.349c1.022,0.341,2.03,0.726,3.038,1.097  c0.104,0.044,0.148,0.104,0.119,0.163c-0.03,0.059-0.059,0.089-0.104,0.089C166.415,608.509,164.429,608.509,162.458,608.509z"/>
<path fill="#FFEEBD" d="M369.251,187.914c0.015,0.089,0.015,0.163,0.015,0.252c-0.385,0.474-0.934,0.504-1.467,0.504  c-2.682,0.044-5.364,0.044-8.047,0c-0.533,0-1.081-0.03-1.48-0.489c0-0.089,0.015-0.178,0.015-0.267  C361.945,187.914,365.591,187.914,369.251,187.914z"/>
<path fill="#5D82C1" d="M572.938,608.509c0.431-0.46,0.979-0.268,1.497-0.282c0.09,0.074,0.118,0.135,0.074,0.193  c-0.03,0.059-0.06,0.089-0.089,0.089C573.931,608.509,573.427,608.509,572.938,608.509z"/>
<path fill="#567EBE" d="M568.166,608.227c0.519,0.017,1.067-0.191,1.512,0.282c-0.488,0-0.992,0-1.481,0  c-0.089-0.06-0.118-0.119-0.104-0.178C568.122,608.271,568.137,608.227,568.166,608.227z"/>
<path fill="#6F8EC7" d="M223.763,608.257c0.534-0.045,1.067-0.163,1.526,0.252c-0.489,0-0.993,0-1.482,0  C223.808,608.42,223.793,608.331,223.763,608.257z"/>
<path fill="#6F8EC7" d="M505.023,608.257c0.532-0.045,1.065-0.163,1.525,0.252c-0.489,0-0.993,0-1.481,0  C505.067,608.42,505.053,608.331,505.023,608.257z"/>
<path fill="#5A80BF" d="M266.16,608.241c0.519,0,1.082-0.192,1.512,0.268c-0.489,0-0.993,0-1.482,0  c-0.089-0.045-0.119-0.104-0.104-0.178C266.115,608.271,266.13,608.241,266.16,608.241z"/>
<path fill="#6F8EC7" d="M433.894,608.257c0.533-0.045,1.066-0.163,1.526,0.252c-0.489,0-0.993,0-1.481,0  C433.938,608.42,433.923,608.331,433.894,608.257z"/>
<path fill="#6084C2" d="M271.228,608.509c0.326-0.415,0.771-0.297,1.201-0.282c0.089,0.074,0.119,0.135,0.074,0.193  c-0.029,0.059-0.059,0.089-0.089,0.089C272.013,608.509,271.628,608.509,271.228,608.509z"/>
<path fill="#BDCAE6" d="M611.525,601.41c-0.044-0.43-0.147-0.859,0.236-1.2c0,0.4,0,0.785,0,1.186l-0.117,0.029L611.525,601.41z"/>
<path fill="#5D82C0" d="M547.153,608.509c0.325-0.399,0.784-0.282,1.2-0.282c0.089,0.074,0.104,0.135,0.073,0.193  s-0.06,0.089-0.089,0.089C547.938,608.509,547.553,608.509,547.153,608.509z"/>
<path fill="#B9C7E4" d="M543.004,608.509c0-0.089,0-0.178-0.015-0.282c0.341-0.044,0.667-0.028,0.902,0.282  C543.597,608.509,543.3,608.509,543.004,608.509z"/>
<path fill="#B8C7E4" d="M266.16,608.241c0.03,0.09,0.044,0.179,0.03,0.268c-0.296,0-0.593,0-0.889,0c0-0.089,0-0.178-0.015-0.282  C265.582,608.241,265.863,608.241,266.16,608.241z"/>
<path fill="#BBC8E5" d="M548.339,608.509c-0.015-0.089-0.015-0.192,0.015-0.282c0.192,0,0.386,0,0.578,0  c-0.016,0.09-0.016,0.179-0.016,0.268C548.738,608.509,548.531,608.509,548.339,608.509z"/>
<path fill="#C5D0E9" d="M568.166,608.227c0.029,0.09,0.045,0.179,0.029,0.282c-0.192,0-0.399,0-0.592,0  c0-0.089-0.017-0.163-0.017-0.252C567.781,608.241,567.974,608.241,568.166,608.227z"/>
<path fill="#BDC9E6" d="M272.413,608.509c-0.015-0.089-0.015-0.192,0.015-0.282c0.192,0,0.385,0.017,0.593,0.017  c-0.015,0.089-0.015,0.178-0.015,0.267C272.813,608.509,272.606,608.509,272.413,608.509z"/>
<path fill="#B7C6E4" d="M168.386,608.509c-0.015-0.089-0.015-0.163-0.015-0.252c0.252-0.045,0.489-0.045,0.608,0.252  C168.786,608.509,168.578,608.509,168.386,608.509z"/>
<path fill="#BBC8E5" d="M574.42,608.509c-0.016-0.089-0.016-0.192,0.015-0.282c0.192,0,0.386,0.017,0.594,0.017  c-0.016,0.089-0.016,0.178-0.016,0.267C574.819,608.509,574.612,608.509,574.42,608.509z"/>
<path fill="#FCBE19" d="M516.816,301.145c1.066,2.133,1.688,4.416,2.355,6.684c1.733,5.867,2.859,11.885,3.854,17.916  c0.903,5.498,1.481,11.04,1.822,16.597c0.268,4.343,0.37,8.685,0.207,13.026c-0.267,6.891-0.858,13.767-1.896,20.598  c-1.379,9.143-3.468,18.108-6.372,26.881c-3.957,11.944-9.262,23.28-15.96,33.937c-6.446,10.269-13.87,19.798-22.258,28.569  c-13.322,13.931-28.63,25.06-46.058,33.299c-11.959,5.659-24.479,9.662-37.433,12.3c-6.965,1.422-13.974,2.43-21.059,3.066  c-7.587,0.696-15.188,0.814-22.775,0.415c-18.997-1.021-37.209-5.438-54.577-13.277c-14.463-6.564-27.711-15.057-39.966-25.162  c-4.653-3.838-9.099-7.898-13.277-12.24c-12.878-13.337-23.147-28.452-30.616-45.435c-4.609-10.462-8.076-21.294-10.462-32.468  c-0.044-0.238-0.119-0.475-0.193-0.711c-0.044-0.135-0.119-0.252-0.178-0.387c-0.534,0.045-0.756,0.475-1.052,0.771  c-8.017,7.824-17.042,14.226-27.088,19.175c-9.307,4.579-19.131,7.676-29.312,9.573c-7.335,1.362-14.745,2.118-22.213,2.073  c-13.322-0.06-26.2-2.488-38.559-7.469c-13.337-5.379-25.207-13.085-35.787-22.776c-17.1-15.692-27.755-35.061-32.615-57.689  c-1.274-5.942-2.089-11.944-2.416-18.02c-0.711-13.012,1.008-25.697,4.816-38.115c0.326-1.082,0.815-2.104,1.23-3.155  c0.415-0.193,0.771-0.015,1.112,0.163c3.601,1.777,7.306,3.334,11.055,4.787c1.719,0.666,1.349,1.882,1.245,3.142  c-0.83,3.765-1.912,7.454-2.519,11.263c-0.652,4.045-1.097,8.105-1.363,12.195c-0.637,9.721,0.682,19.205,3.053,28.571  c3.512,13.87,10.002,26.243,19.146,37.239c9.247,11.113,20.509,19.619,33.624,25.666c8.758,4.045,17.945,6.639,27.533,7.824  c4.208,0.52,8.447,0.979,12.685,0.859c14.33-0.415,28.082-3.408,41.122-9.484c10.151-4.712,19.087-11.129,26.852-19.16  c1.956-2.017,3.75-4.194,5.513-6.402c0.445-0.562,0.682-1.172,0.607-1.912c-0.503-5.32-0.533-10.641-0.474-15.975  c0.133-10.254,1.408-20.377,3.512-30.394c0.948-4.55,2.119-9.04,3.468-13.485c0.341-1.141,0.43-2.488,1.719-3.127  c2.593,0.282,5.098,1.067,7.632,1.631c4.075,0.903,8.135,1.881,12.21,2.845c0.474,0.118,0.963,0.208,1.304,0.622  c0.4,0.682,0.148,1.349-0.06,2.001c-2.682,8.506-4.594,17.159-5.764,26.007c-1.052,8.002-1.349,16.049-0.919,24.081  c0.919,17.116,4.727,33.594,11.559,49.346c5.483,12.642,12.655,24.229,21.591,34.721c11.514,13.529,25.059,24.569,40.708,33.047  c14.582,7.897,30.082,12.906,46.457,15.382c8.965,1.362,18.005,1.601,27.029,1.186c11.425-0.534,22.643-2.623,33.623-5.839  c8.699-2.549,17.146-5.735,25.207-9.884c10.092-5.202,19.396-11.574,27.845-19.205c12.996-11.722,23.161-25.548,31.342-40.944  c7.498-14.106,12.479-28.999,14.597-44.827c0.533-3.957,0.89-7.928,1.082-11.929c0.134-2.903,0.297-5.823,0.223-8.728  c-0.326-12.122-1.675-24.11-4.905-35.848c-0.696-2.519-1.556-4.994-1.867-7.617c0.179-1.467,1.408-1.674,2.489-1.912  c3.75-0.829,7.499-1.733,11.248-2.578c1.926-0.43,3.823-0.993,5.765-1.333C515.765,301.07,516.283,300.861,516.816,301.145z"/>
<path fill="#FECF20" d="M516.816,301.145c-2.282,0.578-4.55,1.186-6.831,1.719c-3.29,0.771-6.596,1.482-9.899,2.223  c-0.859,0.193-1.748,0.311-2.578,0.594c-0.651,0.221-1.512,0.37-1.423,1.407c-0.919-0.104-0.934-0.935-1.156-1.526  c-1.614-4.4-3.245-8.802-5.187-13.084c-3.749-8.254-8.225-16.078-13.589-23.398c-4.684-6.387-9.824-12.389-15.574-17.827  c-9.78-9.276-20.36-17.485-32.201-24.021c-14.76-8.15-30.497-13.188-47.168-15.427c-8.299-1.111-16.656-1.304-24.97-0.889  c-14.152,0.697-28.052,3.068-41.508,7.69c-14.24,4.875-27.25,12.004-39.046,21.354c-12.285,9.735-22.821,21.103-31.549,34.113  c-6.328,9.438-11.218,19.635-15.1,30.304c-0.252,0.682-0.326,1.482-1.156,1.793c-2.045-0.488-4.075-0.993-6.12-1.467  c-4.712-1.098-9.425-2.193-14.137-3.29c-0.282-0.06-0.548-0.193-0.83-0.282c-0.37-0.459-0.178-0.947-0.029-1.408  c2.371-7.498,5.187-14.818,8.921-21.769c2.756-5.527,5.838-10.862,9.306-15.976c0.37-0.562,0.667-1.215,1.408-1.451  c1.837-2.993,3.986-5.75,6.12-8.537c4.786-6.223,9.958-12.135,15.545-17.648c10.862-10.699,22.939-19.739,36.424-26.911  c13.188-7.024,27.133-11.988,41.729-15.115c6.757-1.453,13.544-2.564,20.42-3.275c3.868-0.4,7.75-0.637,11.647-0.86  c3.66,0,7.336-0.015,10.996-0.015c1.911,0.119,3.838,0.222,5.749,0.355c8.121,0.578,16.151,1.778,24.096,3.646  c13.426,3.157,26.186,8.076,38.321,14.626c10.418,5.616,20.108,12.299,29.267,19.798c5.898,4.831,11.396,10.062,16.538,15.679  c6.979,7.631,13.101,15.931,18.405,24.807c5.794,9.691,10.462,19.902,14.255,30.512  C516.298,298.729,516.728,299.898,516.816,301.145z"/>
<path fill="#FFC732" d="M226.398,260.525c-3.853,5.602-7.306,11.425-10.344,17.485c-0.459-0.385-0.415-0.963-0.593-1.452  c-1.215-4.297-2.919-8.401-4.757-12.447c-5.216-11.455-12.773-21.191-22.05-29.623c-6.742-6.15-14.152-11.396-22.302-15.516  c-8.654-4.373-17.827-7.262-27.429-8.67c-5.824-0.845-11.692-1.26-17.561-0.919c-8.728,0.519-17.367,1.66-25.799,4.209  c-12.329,3.719-23.399,9.75-33.135,18.167c-8.995,7.78-16.612,16.717-22.317,27.223c-2.949,5.438-5.483,11.039-7.247,16.996  c-0.208,0.475-0.192,1.111-0.889,1.215c0-0.252-0.044-0.504,0-0.74c0.237-1.526,0.252-1.571-1.111-1.985  c-2.4-0.741-4.505-2.164-6.891-2.948c-1.778-0.594-3.423-1.453-5.053-2.371c0.978-3.631,2.43-7.084,3.986-10.492  c5.631-12.358,13.5-23.162,23.014-32.795c9.202-9.305,19.738-16.655,31.653-22.049c8.135-3.675,16.612-6.209,25.37-7.883  c5.572-1.052,11.203-1.764,16.864-2.045c4.045-0.208,8.106-0.223,12.136,0.044c12.478,0.8,24.451,3.66,35.891,8.743  c11.559,5.143,21.947,12.062,31.372,20.465c11.336,10.106,19.931,22.214,26.17,36.04  C225.657,259.666,225.672,260.348,226.398,260.525z"/>
<path fill="#F38A21" d="M353.027,533.481c-85.208,0-170.417,0-255.625,0c-2.238,0-1.971,0.324-1.971-1.941  c0-0.934-0.4-2.119,0.163-2.727c0.637-0.697,1.867-0.253,2.831-0.253c169.971-0.015,339.942-0.015,509.914-0.015  c2.269,0,2.282,0,2.269,2.252c0,0.83,0.341,1.882-0.163,2.445c-0.578,0.637-1.676,0.237-2.549,0.237  C522.954,533.481,437.983,533.481,353.027,533.481z"/>
<path fill="#1E64B0" d="M428.04,546.966c-0.46,0.431-1.037,0.208-1.526,0.312c-1.318,0.312-1.764,0.741-1.822,2.119  c-0.06,1.777-0.06,3.557-0.06,5.335c0,3.703-0.015,7.408,0.016,11.113c0.028,2.163,0.415,2.52,2.593,2.711  c0.268,0.03,0.607-0.089,0.712,0.312c-1.022,0.354-11.263,0.4-12.67,0.06c0.178-0.549,0.637-0.341,0.978-0.37  c1.778-0.162,2.327-0.638,2.327-2.37c0.044-5.438,0.029-10.862,0.029-16.302c0-0.134-0.074-0.252-0.134-0.475  c-0.399,0.341-0.504,0.771-0.683,1.156c-2.667,5.72-5.334,11.455-8.017,17.16c-0.224,0.474-0.281,1.273-0.83,1.289  c-0.667,0.015-0.711-0.83-0.948-1.334c-2.697-5.603-5.379-11.203-8.062-16.819c-0.207-0.444-0.431-0.874-0.696-1.407  c-0.355,0.325-0.237,0.666-0.237,0.963c0,4.847-0.015,9.678,0,14.522c0,2.638,0.46,3.155,3.053,3.601  c0.192,0.03,0.387,0.045,0.415,0.297c-0.934,0.37-6.652,0.444-8.18,0.104c-0.03-0.355,0.222-0.355,0.475-0.4  c2.268-0.354,2.859-0.978,2.89-3.305c0.03-3.452,0.016-6.92,0.016-10.373c0-1.733,0.016-3.452-0.06-5.188  c-0.089-1.777-0.563-2.208-2.297-2.46c-0.355-0.044-0.802,0.179-1.054-0.296c0.237-0.489,0.683-0.297,1.038-0.297  c2.622-0.015,5.23,0.03,7.854-0.029c0.83-0.015,1.215,0.268,1.556,0.993c1.912,4.119,3.868,8.209,5.811,12.314  c0.207,0.443,0.43,0.874,0.695,1.407c0.476-0.415,0.594-0.935,0.801-1.394c1.853-4.031,3.733-8.062,5.526-12.122  c0.4-0.903,0.86-1.245,1.867-1.215c2.46,0.074,4.935,0.015,7.41,0.044C427.21,546.625,427.699,546.418,428.04,546.966z"/>
<path fill="#1E64B0" d="M463.693,607.842c0.696-0.43,1.318-0.223,1.883-0.371c1.333-0.324,1.867-0.874,1.867-2.252  c0.028-6.12,0.028-12.24,0-18.346c0-1.66-0.652-2.268-2.327-2.415c-0.385-0.03-0.8,0.104-1.155-0.148  c-0.03-0.029-0.045-0.073-0.074-0.118c0.044-0.459,0.415-0.325,0.667-0.325c4.489,0,8.979,0,13.471,0.059  c1.63,0.016,3.229,0.341,4.786,0.845c6.401,2.119,8.551,7.854,7.897,12.849c-0.651,5.009-3.556,8.21-8.372,9.662  c-1.808,0.549-3.66,0.845-5.542,0.858c-4.001,0.03-7.987,0.016-11.988,0.016C464.509,608.168,464.153,608.212,463.693,607.842z"/>
<path fill="#1E64B0" d="M93.462,584.072c0.326-0.281,0.726-0.192,1.082-0.192c4.001,0,8.002,0,12.003,0.015  c1.986,0,3.942,0.253,5.838,0.859c4.846,1.557,7.854,5.483,8.062,10.565c0.252,6.136-2.845,10.389-8.758,12.078  c-1.763,0.503-3.571,0.771-5.409,0.771c-3.897,0.029-7.795,0.015-11.707,0c-0.371,0-0.771,0.089-1.186-0.268  c0.341-0.399,0.741-0.297,1.097-0.325c2.075-0.193,2.712-0.815,2.712-2.891c0.015-5.778,0.015-11.559,0-17.338  c-0.015-2.208-0.578-2.741-2.831-2.89C94.069,584.428,93.684,584.576,93.462,584.072z"/>
<path fill="#1E64B0" d="M233.514,558.524c0,0.06-0.015,0.118,0.015,0.147c2.164,2.993,4.446,5.913,6.861,8.714  c0.503,0.593,1.215,0.829,1.926,1.037c0.192,0.061,0.371,0.163,0.341,0.4c-0.03,0.235-0.222,0.296-0.43,0.296  c-2.327,0-4.638,0-6.965,0.015c-0.607,0-0.815-0.504-1.111-0.874c-2.193-2.801-4.372-5.602-6.58-8.401  c-0.296-0.37-0.504-0.83-1.097-0.904c-0.993-0.104-1.23,0.045-1.23,1.038c-0.015,1.971-0.015,3.956,0.015,5.927  c0.03,1.972,0.459,2.416,2.416,2.594c0.282,0.029,0.593-0.045,0.83,0.207c0.059,0.371-0.208,0.4-0.459,0.4  c-3.853,0-7.706,0-11.559,0c-0.133,0-0.282-0.029-0.355-0.223c0.059-0.503,0.489-0.325,0.785-0.355  c2.03-0.207,2.46-0.637,2.46-2.696c0.015-5.23,0.015-10.463,0-15.708c0-2.281-0.311-2.594-2.593-2.904  c-0.237-0.029-0.504,0.016-0.682-0.223c0-0.46,0.371-0.386,0.623-0.371c5.083,0.074,10.166-0.222,15.248,0.224  c1.334,0.118,2.638,0.386,3.809,1.066c1.956,1.126,3.067,2.815,3.008,5.082c-0.059,2.356-1.378,3.942-3.512,4.861  C234.714,558.109,234.107,558.317,233.514,558.524z"/>
<path fill="#1E64B0" d="M332.459,568.794c0.43-0.399,0.904-0.222,1.334-0.267c1.452-0.163,2.061-0.727,2.061-2.163  c0.028-5.616,0.028-11.248,0-16.864c0-1.407-0.52-1.911-1.867-2.223c-0.504-0.118-1.067,0.117-1.513-0.268  c0.09-0.371,0.326-0.386,0.578-0.386c4.684,0.089,9.365-0.252,14.048,0.252c1.126,0.119,2.238,0.371,3.306,0.771  c4.505,1.689,7.128,5.646,7.023,10.581c-0.104,4.786-2.831,8.478-7.395,9.987c-1.541,0.52-3.127,0.89-4.771,0.89  c-4.001,0.016-7.986,0.016-11.988,0.016C333.022,569.135,332.682,569.254,332.459,568.794z"/>
<path fill="#1E64B0" d="M278.371,568.809c0.474-0.414,0.993-0.222,1.467-0.28c1.26-0.163,1.956-0.741,1.956-2  c0.044-5.722,0.044-11.455,0-17.177c-0.015-1.304-0.593-1.776-1.897-2.073c-0.489-0.118-1.067,0.134-1.497-0.268  c0.089-0.399,0.356-0.386,0.593-0.37c4.638,0.09,9.277-0.236,13.915,0.236c1.526,0.163,3.023,0.52,4.401,1.216  c3.69,1.822,5.617,4.83,5.942,8.905c0.133,1.631,0,3.246-0.563,4.816c-0.963,2.696-2.712,4.668-5.305,5.867  c-1.808,0.846-3.719,1.378-5.705,1.424c-4.194,0.073-8.388,0.045-12.596,0.06C278.859,569.135,278.593,569.18,278.371,568.809z"/>
<path fill="#1E64B0" d="M123.07,607.812c0.474-0.386,0.993-0.192,1.467-0.268c1.585-0.252,2.148-0.83,2.282-2.415  c0.03-0.341,0.03-0.696,0.03-1.037c0-5.482,0-10.966,0-16.448c0-0.253,0-0.489-0.015-0.741c-0.089-1.615-0.741-2.282-2.371-2.444  c-0.445-0.045-0.963,0.147-1.423-0.297c0.326-0.37,0.667-0.296,0.978-0.296c6.772,0,13.53,0,20.302,0c1.2,0,1.215,0.015,1.23,1.215  c0.015,1.778,0.015,3.557,0,5.335c0,0.311,0.148,0.771-0.371,0.814c-0.489,0.029-0.474-0.415-0.548-0.74  c-0.771-3.261-2.935-4.787-6.165-4.95c-1.422-0.074-2.86-0.044-4.297-0.104c-0.652-0.029-0.859,0.267-0.859,0.874  c0.015,2.668,0.015,5.335,0,8.003c0,0.666,0.296,0.844,0.904,0.8c1.882-0.134,3.305-0.904,4.031-2.741  c0.252-0.652,0.43-1.305,0.593-1.986c0.089-0.37-0.044-1.065,0.578-0.991c0.504,0.044,0.296,0.65,0.296,1.008  c0.015,3.556,0.015,7.111,0.015,10.669c0,0.191,0.015,0.399-0.015,0.593c-0.015,0.252-0.044,0.519-0.385,0.519  c-0.223,0-0.312-0.206-0.356-0.399c-0.208-0.814-0.341-1.646-0.667-2.415c-0.756-1.822-2.09-2.801-4.075-2.919  c-0.608-0.03-0.934,0.089-0.919,0.771c0.03,2.623,0.015,5.23,0.089,7.854c0.03,1.097,0.563,1.615,1.675,1.675  c1.674,0.089,3.349,0.148,5.023-0.148c3.008-0.548,5.098-2.236,6.283-5.053c0.163-0.386,0.192-1.082,0.696-0.964  c0.682,0.163,0.252,0.845,0.208,1.26c-0.237,1.765-0.578,3.497-0.8,5.262c-0.104,0.771-0.355,1.097-1.2,1.097  c-7.113-0.029-14.226-0.015-21.339-0.029C123.663,608.152,123.336,608.257,123.07,607.812z"/>
<path fill="#1E64B0" d="M312.513,607.842c0.192-0.399,0.578-0.252,0.874-0.267c2.253-0.208,2.816-0.786,2.831-3.099  c0.029-4.148,0.016-8.298,0.016-12.446c0-1.63,0.015-3.262-0.016-4.892c-0.03-1.882-0.682-2.549-2.579-2.682  c-0.37-0.03-0.8,0.133-1.154-0.269c0.267-0.503,0.756-0.311,1.126-0.311c6.669-0.015,13.337-0.015,20.006-0.015  c0.146,0,0.296,0.015,0.443,0c0.607-0.061,0.89,0.162,0.89,0.828c-0.029,1.973-0.016,3.957-0.016,5.929  c0,0.236,0.029,0.519-0.296,0.593c-0.386,0.089-0.504-0.178-0.593-0.489c-0.104-0.385-0.208-0.756-0.341-1.141  c-0.786-2.371-2.505-3.571-4.891-3.942c-1.72-0.267-3.453-0.178-5.173-0.222c-0.711-0.015-0.963,0.252-0.947,0.948  c0.028,2.623,0.028,5.23,0,7.854c0,0.728,0.267,0.949,0.979,0.891c1.956-0.148,3.378-1.022,4.045-2.92  c0.281-0.785,0.444-1.614,0.652-2.431c0.044-0.192,0.133-0.399,0.354-0.415c0.326-0.015,0.37,0.268,0.387,0.504  c0.015,0.252,0.015,0.489,0.015,0.741c0,3.452,0,6.92,0,10.373c0,0.148,0.015,0.296,0,0.444c-0.03,0.267,0.089,0.651-0.297,0.74  c-0.415,0.09-0.415-0.325-0.489-0.577c-0.073-0.281-0.118-0.578-0.191-0.874c-0.237-0.965-0.607-1.867-1.2-2.684  c-0.904-1.26-2.252-1.497-3.66-1.601c-0.37-0.029-0.533,0.192-0.563,0.534c-0.015,0.104-0.015,0.191-0.015,0.296  c0.015,2.562,0,5.143,0.074,7.706c0.029,1.186,0.548,1.704,1.732,1.777c1.526,0.09,3.068,0.147,4.579-0.089  c3.172-0.475,5.453-2.164,6.685-5.172c0.147-0.371,0.163-1.067,0.726-0.904c0.549,0.148,0.224,0.771,0.163,1.156  c-0.252,1.763-0.548,3.513-0.829,5.261c-0.178,1.155-0.178,1.17-1.394,1.17c-6.031,0-12.048,0-18.079,0  c-1.037,0-2.074,0.017-3.111,0C312.987,608.152,312.661,608.241,312.513,607.842z"/>
<path fill="#1E64B0" d="M359.711,568.854c0.682-0.459,1.244-0.252,1.763-0.354c1.067-0.208,1.542-0.638,1.704-1.734  c0.09-0.532,0.119-1.081,0.119-1.614c0.016-4.891,0-9.78,0-14.67c0-0.045,0-0.104,0-0.148c-0.029-2.475-0.415-2.89-2.89-3.112  c-0.192-0.015-0.386-0.028-0.533-0.191c0.015-0.459,0.37-0.386,0.637-0.386c6.372,0,12.744,0,19.116-0.016  c0.711,0,0.948,0.237,0.934,0.948c-0.028,1.733-0.015,3.453-0.015,5.187c0,0.282,0.06,0.639-0.386,0.639  c-0.296,0-0.399-0.237-0.444-0.489c-0.015-0.044-0.015-0.104-0.029-0.148c-0.712-3.052-2.771-4.399-5.765-4.562  c-1.273-0.061-2.562-0.045-3.853-0.074c-0.563-0.015-0.802,0.192-0.802,0.771c0.016,2.52,0.016,5.038,0,7.558  c0,0.711,0.355,0.8,0.935,0.756c1.927-0.134,3.171-1.067,3.809-2.979c0.224-0.652,0.296-1.35,0.476-2.017  c0.044-0.191,0.235-0.296,0.459-0.252c0.178,0.029,0.236,0.178,0.252,0.312c0.028,0.236,0.028,0.487,0.028,0.739  c0,3.217,0,6.417,0,9.634c0,0.191,0,0.399-0.015,0.593c-0.015,0.192-0.044,0.415-0.281,0.443c-0.312,0.029-0.443-0.178-0.488-0.43  c-0.09-0.696-0.253-1.363-0.505-2.001c-0.756-1.896-1.956-2.756-3.764-2.814c-0.606-0.016-0.904,0.104-0.89,0.785  c0.029,2.326,0,4.639,0.045,6.966c0.029,1.185,0.474,1.703,1.556,1.763c1.675,0.089,3.351,0.147,5.009-0.222  c2.563-0.578,4.312-2.075,5.351-4.446c0.134-0.312,0.252-0.637,0.415-0.948c0.06-0.104,0.236-0.191,0.354-0.191  c0.268,0,0.312,0.223,0.281,0.414c-0.311,2-0.637,4.002-0.948,5.986c-0.074,0.476-0.341,0.683-0.813,0.639  c-0.148-0.016-0.297,0-0.445,0c-6.416,0-12.848,0-19.264,0C360.496,569.135,360.155,569.18,359.711,568.854z"/>
<path fill="#1E64B0" d="M213.257,562.052c0.341,0.431,0.178,0.83,0.119,1.2c-0.237,1.615-0.519,3.216-0.786,4.816  c-0.178,1.052-0.192,1.065-1.289,1.065c-3.512,0.016-7.009,0-10.521,0c-2.771,0-5.527,0-8.298,0c-0.474,0-0.978,0.089-1.438-0.133  c0.03-0.607,0.474-0.43,0.771-0.46c2.193-0.163,2.653-0.622,2.653-2.83c0.015-5.29,0.015-10.565,0-15.856  c0-1.866-0.548-2.43-2.416-2.651c-0.326-0.044-0.697,0.089-0.993-0.192c-0.029-0.03-0.015-0.074-0.029-0.208  c0.281-0.325,0.696-0.207,1.052-0.207c6.121-0.015,12.255-0.015,18.375,0c1.245,0,1.26,0.016,1.26,1.187  c0.015,1.675,0,3.362,0,5.038c0,0.252-0.06,0.519-0.371,0.519c-0.222,0-0.311-0.207-0.371-0.399  c-0.104-0.325-0.208-0.651-0.311-0.992c-0.682-2.164-2.223-3.306-4.401-3.676c-1.674-0.281-3.349-0.192-5.023-0.223  c-0.548-0.015-0.815,0.192-0.8,0.771c0.015,2.52,0.015,5.038,0,7.558c-0.015,0.727,0.371,0.8,0.949,0.756  c1.778-0.134,3.112-0.919,3.719-2.667c0.267-0.741,0.415-1.525,0.623-2.282c0.059-0.208,0.178-0.341,0.415-0.281  c0.178,0.045,0.208,0.192,0.223,0.325c0.029,0.252,0.029,0.489,0.029,0.741c0,3.156,0,6.327,0,9.484c0,0.104,0.015,0.207,0,0.296  c-0.059,0.312,0.163,0.785-0.355,0.815c-0.385,0.015-0.326-0.415-0.4-0.683c-0.208-0.858-0.415-1.72-0.86-2.505  c-0.771-1.378-1.956-2.016-3.527-2.045c-0.533,0-0.83,0.119-0.815,0.727c0.03,2.326-0.03,4.639,0.044,6.966  c0.044,1.317,0.548,1.808,1.823,1.852c1.526,0.045,3.053,0.119,4.579-0.192c2.682-0.548,4.52-2.089,5.602-4.578  c0.133-0.312,0.267-0.638,0.43-0.948C212.946,562.155,213.079,562.141,213.257,562.052z"/>
<path fill="#1F64B0" d="M461.471,551.189c0,3.438,0,6.741,0,10.047c0,1.378-0.015,2.771,0,4.148c0.045,2.075,0.846,2.919,2.92,3.156  c0.281,0.03,0.594-0.044,0.801,0.237c-0.757,0.443-6.388,0.578-8.624,0.223c-0.074-0.46,0.28-0.43,0.562-0.46  c2.386-0.355,2.936-0.919,2.949-3.23c0.029-5.037,0.015-10.075,0-15.114c0-1.187-0.993-2.341-2.269-2.771  c-0.443-0.147-0.947-0.119-1.304-0.444c0.178-0.488,0.52-0.37,0.785-0.37c2.371-0.016,4.742,0.028,7.113-0.029  c0.845-0.03,1.229,0.474,1.688,0.992c3.395,3.854,6.771,7.721,10.182,11.574c0.311,0.354,0.576,0.771,1.096,1.036  c0.208-0.46,0.134-0.845,0.134-1.215c0.016-2.623,0.016-5.23,0-7.854c0-0.548-0.029-1.082-0.104-1.615  c-0.192-1.141-0.846-1.837-1.986-2.119c-0.459-0.118-0.992-0.029-1.481-0.474c0.89-0.549,1.822-0.237,2.684-0.282  c0.934-0.059,1.882-0.044,2.814,0c0.89,0.045,1.838-0.236,2.713,0.237c-0.312,0.532-0.802,0.475-1.217,0.578  c-1.273,0.312-1.821,0.919-1.94,2.252c-0.073,0.786-0.06,1.586-0.06,2.37c0,5.381,0,10.76-0.015,16.152  c0,0.46,0.267,1.127-0.312,1.334c-0.549,0.192-0.801-0.474-1.11-0.813c-4.994-5.544-9.975-11.085-14.952-16.643  C462.271,551.797,462.078,551.441,461.471,551.189z"/>
<path fill="#1E64B0" d="M359.385,607.797c-1.245,0.475-12.773,0.504-14.122,0.074c0.37-0.43,0.829-0.252,1.215-0.312  c1.646-0.235,2.489-0.682,2.489-2.638c0-3.512,0.03-7.009,0.03-10.521c0-2.623,0.015-5.231,0-7.854c0-1.065-0.03-1.097-1.067-1.111  c-0.695-0.015-1.378,0.016-2.073,0.074c-2.477,0.207-3.897,1.689-4.653,3.941c-0.148,0.43-0.074,1.2-0.682,1.11  c-0.608-0.089-0.298-0.828-0.312-1.273c-0.029-1.481,0.029-2.964-0.029-4.445c-0.029-0.785,0.268-1.008,1.022-0.993  c3.008,0.03,6.031,0.017,9.039,0.017c4.298,0,8.595,0,12.893,0c1.142,0,1.156,0.015,1.156,1.11c0.015,1.675,0,3.363,0,5.038  c0,0.224,0.044,0.52-0.282,0.594c-0.311,0.06-0.443-0.179-0.533-0.4c-0.178-0.459-0.312-0.934-0.488-1.393  c-0.814-2.017-2.297-3.128-4.477-3.351c-3.097-0.296-3.097-0.311-3.097,2.742c0,5.142,0,10.27,0,15.411c0,0.147,0,0.297,0,0.443  c0.029,2.875,0.386,3.245,3.319,3.527C358.896,607.604,359.029,607.679,359.385,607.797z"/>
<path fill="#1E64B0" d="M540.218,568.972c0.268-0.577,0.667-0.415,0.979-0.443c1.911-0.179,2.386-0.652,2.415-2.608  c0.028-3.452,0.015-6.905,0.015-10.357c0-1.867,0.015-3.749-0.015-5.616c-0.029-1.985-0.415-2.4-2.356-2.696  c-0.325-0.045-0.696,0.074-0.978-0.223c-0.029-0.355,0.223-0.4,0.459-0.4c4.489,0.089,8.979-0.236,13.456,0.223  c1.229,0.134,2.43,0.4,3.541,0.964c1.94,0.979,3.216,2.505,3.244,4.741c0.03,2.148-1.052,3.749-2.903,4.816  c-1.526,0.889-3.23,1.186-4.964,1.304c-0.935,0.061-1.867,0.074-2.815,0.061c-0.652-0.016-1.021,0.147-1.008,0.902  c0.044,2.164-0.029,4.344,0.06,6.507c0.073,1.777,0.577,2.192,2.342,2.37c0.325,0.029,0.695-0.073,0.963,0.224  c0.029,0.37-0.252,0.37-0.475,0.37c-3.853,0-7.69,0-11.544,0C540.544,569.12,540.41,569.046,540.218,568.972z"/>
<path fill="#1E64B0" d="M191.325,607.931c-0.371,0.134-0.504,0.223-0.623,0.223c-2.563,0.016-5.127,0.016-7.691,0.016  c-0.222,0-0.548,0.089-0.623-0.223c-0.104-0.415,0.282-0.476,0.534-0.533c1.408-0.371,2.252-1.395,2.89-2.594  c1.349-2.578,2.638-5.188,3.942-7.779c2.06-4.105,4.09-8.21,6.149-12.3c0.223-0.431,0.341-0.935,0.786-1.274  c0.548,0.163,0.607,0.711,0.8,1.126c3.038,6.194,6.076,12.389,9.113,18.599c0.341,0.711,0.711,1.407,1.097,2.09  c0.623,1.11,1.363,2.073,2.727,2.297c0.133,0.029,0.267,0.118,0.296,0.281c-0.015,0.044-0.015,0.089-0.029,0.134  c-0.089,0.178,0.133,0.133-0.06,0.133c-3.793,0.029-7.587,0.06-11.396,0.074c-0.385,0-0.786-0.045-1.171-0.061  c-0.118-0.015-0.178-0.089-0.163-0.341c0.415-0.37,1.037-0.147,1.571-0.267c1.497-0.326,1.837-0.859,1.229-2.297  c-0.474-1.142-1.037-2.237-1.556-3.35c-0.222-0.504-0.563-0.712-1.141-0.712c-2.608,0.03-5.231,0.015-7.839,0.015  c-0.415,0-0.785,0.046-0.993,0.476c-0.489,1.021-1.082,2.001-1.393,3.097c-0.4,1.482,0.178,2.356,1.719,2.623  C190.051,607.441,190.658,607.412,191.325,607.931z"/>
<path fill="#1E64B0" d="M297.19,583.436c0.548,0.252,0.637,0.845,0.859,1.305c3.023,6.148,6.031,12.313,9.039,18.464  c0.326,0.667,0.667,1.319,1.022,1.971c0.638,1.156,1.407,2.149,2.831,2.401c0.073,0.015,0.146,0.104,0.207,0.178  c0.028,0.029,0.028,0.089,0.045,0.133c-0.061,0.237-0.252,0.282-0.445,0.282c-4.045,0-8.091-0.016-12.136-0.03  c-0.133,0-0.267-0.104-0.252-0.385c0.504-0.371,1.171-0.134,1.764-0.297c1.259-0.355,1.6-0.83,1.111-2.016  c-0.504-1.229-1.111-2.416-1.66-3.631c-0.208-0.46-0.504-0.651-1.022-0.651c-2.667,0.015-5.335,0.015-7.987,0  c-0.43,0-0.756,0.104-0.949,0.533c-0.489,1.021-1.082,2.001-1.378,3.098c-0.371,1.423,0.193,2.282,1.645,2.562  c0.593,0.118,1.245,0,1.793,0.52c-1.215,0.43-7.795,0.415-8.847,0.029c0.015-0.312,0.252-0.414,0.489-0.475  c1.482-0.354,2.341-1.423,3.008-2.667c1.304-2.49,2.563-4.994,3.823-7.514c2.134-4.282,4.253-8.565,6.387-12.848  C296.687,584.058,296.79,583.643,297.19,583.436z"/>
<path fill="#1E64B0" d="M391.719,607.842c-0.934,0.399-11.365,0.475-12.848,0.104c0-0.476,0.371-0.326,0.622-0.37  c0.489-0.089,0.993-0.104,1.453-0.237c0.8-0.237,1.081-0.638,0.874-1.438c-0.4-1.586-1.261-2.993-1.986-4.445  c-0.146-0.312-0.474-0.297-0.785-0.297c-2.712,0-5.438,0-8.149,0c-0.312,0-0.577,0.06-0.74,0.37  c-0.521,1.066-1.187,2.061-1.438,3.23c-0.354,1.557,0.192,2.312,1.764,2.607c0.52,0.089,1.082,0.045,1.631,0.489  c-0.964,0.593-1.956,0.236-2.875,0.296c-1.037,0.06-2.075,0.029-3.112,0.016c-0.963-0.016-1.926,0.104-2.83-0.074  c-0.089-0.399,0.074-0.533,0.268-0.578c1.645-0.386,2.593-1.541,3.318-2.948c1.305-2.55,2.595-5.099,3.868-7.661  c2.074-4.149,4.134-8.299,6.209-12.463c0.178-0.342,0.268-0.74,0.74-1.022c0.445,0.312,0.578,0.845,0.801,1.306  c2.979,6.074,5.942,12.15,8.921,18.212c0.341,0.712,0.711,1.407,1.082,2.104c0.637,1.215,1.422,2.269,2.904,2.521  C391.526,607.575,391.615,607.738,391.719,607.842z"/>
<path fill="#1E64B0" d="M130.791,569.046c-2.949,0-5.765,0-8.595,0c-0.059-0.637,0.4-0.474,0.697-0.519  c2.06-0.326,2.756-1.053,2.771-3.127c0.03-5.083,0.015-10.165,0.015-15.264c0-1.082-1.111-2.327-2.356-2.712  c-0.4-0.134-0.875-0.119-1.186-0.399c0.059-0.415,0.326-0.4,0.563-0.4c2.416,0,4.846,0.03,7.261-0.029  c0.786-0.015,1.156,0.415,1.585,0.904c3.394,3.854,6.772,7.72,10.181,11.559c0.341,0.386,0.607,0.874,1.126,1.097  c0.089-0.118,0.192-0.192,0.192-0.268c0.015-3.2,0.163-6.416-0.059-9.616c-0.148-2.119-0.652-2.594-2.756-3.022  c-0.237-0.045-0.504,0-0.667-0.223c0.682-0.476,5.868-0.622,8.047-0.207c-0.119,0.593-0.652,0.548-1.023,0.606  c-1.363,0.178-1.956,1.053-2.104,2.297c-0.089,0.683-0.089,1.378-0.089,2.074c0,5.527,0,11.055-0.015,16.598  c0,0.399,0.251,0.992-0.267,1.171c-0.489,0.163-0.726-0.399-1.007-0.712c-4.728-5.245-9.44-10.507-14.152-15.768  c-0.548-0.622-1.111-1.229-1.645-1.822c-0.504,0.179-0.326,0.533-0.326,0.785c-0.015,4.253-0.015,8.491-0.015,12.744  c0,0.252,0,0.489,0.015,0.741c0.163,2.03,0.904,2.786,2.919,3.038C130.183,568.572,130.523,568.438,130.791,569.046z"/>
<path fill="#1E64B0" d="M108.192,546.966c-0.445,0.386-0.949,0.208-1.408,0.268c-1.601,0.192-2.134,0.682-2.134,2.253  c-0.029,4.696-0.044,9.38,0.03,14.078c0.044,2.712,1.66,4.237,4.386,4.386c1.141,0.06,2.268,0.015,3.349-0.444  c1.749-0.756,2.875-2.045,3.23-3.957c0.163-0.874,0.296-1.748,0.296-2.651c0-3.408,0.015-6.816,0-10.226  c-0.015-2.46-0.459-2.979-2.89-3.438c-0.222-0.044-0.504,0.016-0.563-0.325c1.156-0.445,7.498-0.4,8.417,0.044  c-0.326,0.43-0.815,0.223-1.23,0.326c-1.393,0.341-2.03,1.008-2.178,2.431c-0.06,0.488-0.044,0.992-0.044,1.481  c0,2.919,0.015,5.824-0.015,8.743c-0.015,0.978-0.029,1.984-0.163,2.948c-0.519,3.615-2.816,5.883-6.461,6.477  c-1.971,0.326-3.941,0.37-5.897-0.016c-3.527-0.682-6.239-2.785-6.239-7.068c0-3.704-0.015-7.409-0.03-11.113  c0-0.638-0.03-1.289-0.104-1.927c-0.163-1.394-0.519-1.749-1.912-2.017c-0.371-0.073-0.8,0.09-1.112-0.236  c-0.029-0.385,0.237-0.37,0.475-0.399C98.886,546.358,107.333,546.581,108.192,546.966z"/>
<path fill="#1E64B0" d="M429.759,546.862c1.26-0.341,11.41-0.341,12.744-0.016c-0.296,0.52-0.785,0.326-1.155,0.355  c-1.927,0.178-2.4,0.651-2.416,2.607c-0.015,4.401,0,8.787,0,13.188c0,0.4,0.029,0.785,0.061,1.186  c0.146,1.704,1.081,2.875,2.651,3.408c1.941,0.652,3.897,0.563,5.734-0.443c1.379-0.757,2.208-1.956,2.521-3.482  c0.191-0.964,0.312-1.941,0.312-2.936c-0.015-3.362,0.015-6.713,0-10.075c-0.015-2.445-0.489-2.964-2.92-3.408  c-0.192-0.03-0.399-0.03-0.519-0.224c0.549-0.386,0.549-0.386,2.683-0.386c0.934,0,1.882-0.015,2.814,0  c0.964,0.017,1.928-0.104,2.993,0.119c-0.236,0.548-0.606,0.444-0.902,0.489c-1.884,0.325-2.579,1.052-2.608,2.963  c-0.045,2.712,0,5.438-0.029,8.15c-0.016,1.631-0.029,3.246-0.192,4.876c-0.268,2.667-1.793,4.386-4.075,5.379  c-3.349,1.452-6.846,1.438-10.254,0.147c-2.697-1.021-4.164-3.098-4.209-6.03c-0.061-3.81-0.029-7.604-0.061-11.41  c0-0.741-0.028-1.482-0.118-2.208c-0.147-1.187-0.475-1.513-1.63-1.765c-0.236-0.06-0.488-0.073-0.727-0.104  C430.233,547.188,429.967,547.248,429.759,546.862z"/>
<path fill="#1E64B0" d="M259.965,546.255c0.089,2.356,0.163,4.608,0.237,6.847c0,0.192-0.015,0.399-0.252,0.475  c-0.296,0.074-0.459-0.074-0.548-0.341c-0.119-0.37-0.208-0.757-0.355-1.126c-1.2-3.038-4.164-4.92-7.335-4.684  c-0.444,0.029-0.874,0.133-1.289,0.296c-2.208,0.859-2.89,3.275-0.845,4.892c0.711,0.562,1.482,0.978,2.282,1.362  c1.689,0.814,3.394,1.585,5.068,2.431c1.022,0.504,1.971,1.11,2.815,1.896c2.623,2.415,2.742,6.164,0.208,8.685  c-2.682,2.651-5.942,3.097-9.469,2.252c-0.756-0.179-1.497-0.488-2.237-0.785c-1.186-0.489-2.223-0.415-2.994,0.741  c-0.163,0.252-0.341,0.519-0.696,0.354c-0.282-0.118-0.223-0.415-0.223-0.651c0-2.268,0-4.55,0-6.816  c0-0.267-0.074-0.651,0.356-0.682c0.4-0.029,0.43,0.312,0.519,0.593c0.252,0.801,0.548,1.586,0.978,2.312  c1.719,3.01,5.291,4.684,8.402,3.942c0.533-0.134,1.037-0.326,1.482-0.638c1.778-1.2,2.015-3.111,0.578-4.684  c-0.578-0.622-1.274-1.082-2.03-1.451c-1.334-0.652-2.683-1.261-4.016-1.911c-1.467-0.712-2.919-1.438-4.134-2.579  c-3.038-2.846-2.742-7.024,0.696-9.38c2.519-1.72,5.275-1.72,8.091-0.919c0.667,0.191,1.289,0.504,1.941,0.726  c1.334,0.46,1.512,0.371,2.208-0.874C259.462,546.418,259.551,546.344,259.965,546.255z"/>
<path fill="#1F64B0" d="M587.193,546.922c0.015-0.163,0.134-0.267,0.28-0.267c4.149,0,8.284,0,12.435,0  c0.146,0,0.252,0.133,0.267,0.37c-0.386,0.341-0.89,0.147-1.349,0.207c-1.646,0.207-2.223,0.712-2.237,2.342  c-0.045,5.335-0.045,10.653,0,15.988c0.016,1.72,0.399,2.045,2.148,2.091c1.229,0.028,2.475,0.015,3.704,0  c2.505-0.03,4.312-1.2,5.498-3.38c0.475-0.873,0.845-1.777,1.171-2.712c0.104-0.312,0.28-0.548,0.637-0.443  c0.326,0.089,0.252,0.385,0.223,0.606c-0.267,2.253-0.548,4.506-0.8,6.759c-0.06,0.519-0.312,0.682-0.771,0.65  c-0.192-0.015-0.399,0-0.593,0c-6.462,0-12.938,0-19.397,0c-0.385,0-0.785,0.074-1.155-0.118c-0.089-0.475,0.268-0.43,0.548-0.46  c0.341-0.028,0.696-0.015,1.037-0.072c1.067-0.193,1.541-0.697,1.66-1.765c0.044-0.488,0.059-0.993,0.059-1.481  c0-4.891,0.017-9.767,0-14.655c0-2.875-0.104-2.979-3.036-3.395C587.327,547.159,587.223,547.085,587.193,546.922z"/>
<path fill="#1E64B0" d="M522.08,564.2c0.37,1.334-0.148,2.03-1.008,2.697c-2.282,1.747-4.876,2.562-7.691,2.712  c-2.236,0.117-4.445-0.163-6.563-0.904c-4.091-1.438-6.803-4.224-7.559-8.535c-0.756-4.298,0.815-7.913,4.12-10.67  c3.882-3.245,8.401-3.912,13.248-2.801c0.918,0.208,1.808,0.489,2.696,0.771c1.053,0.326,1.956,0.297,2.475-0.874  c0.104-0.223,0.282-0.415,0.578-0.28c0.237,0.104,0.192,0.324,0.208,0.504c0,2.178,0,4.342,0,6.52c0,0.252-0.03,0.52-0.356,0.534  c-0.206,0.015-0.354-0.163-0.43-0.356c-0.146-0.369-0.267-0.739-0.43-1.096c-1.378-3.098-4.269-4.831-7.854-4.713  c-3.229,0.104-5.913,2.06-7.039,5.201c-1.317,3.705-1.097,7.395,0.355,10.996c1.171,2.919,3.557,4.104,6.55,4.223  c2.801,0.119,5.231-0.845,7.306-2.696C521.116,565.06,521.562,564.675,522.08,564.2z"/>
<path fill="#1E64B0" d="M318.604,546.255c0.52,0.326,0.622,0.889,0.846,1.349c2.771,5.66,5.542,11.337,8.298,17.013  c0.09,0.178,0.163,0.354,0.252,0.533c0.815,1.557,1.497,3.261,3.557,3.526c-0.044,0.192-0.044,0.237-0.073,0.281  c-0.016,0.045-0.06,0.089-0.09,0.089c-3.793,0.178-7.587,0.061-11.381,0.061c-0.133,0-0.28-0.029-0.37-0.312  c0.326-0.415,0.846-0.222,1.289-0.281c1.513-0.178,1.883-0.756,1.289-2.192c-0.43-1.053-0.978-2.045-1.438-3.082  c-0.207-0.476-0.533-0.639-1.037-0.639c-2.415,0.017-4.831,0.017-7.246,0c-0.37,0-0.696,0.061-0.874,0.415  c-0.46,0.979-1.067,1.897-1.29,2.979c-0.296,1.423,0.193,2.119,1.631,2.416c0.459,0.104,0.992-0.074,1.496,0.398  c-0.874,0.578-1.793,0.237-2.638,0.298c-0.935,0.06-1.867,0.028-2.815,0.015c-0.889-0.029-1.808,0.118-2.682-0.118  c0.044-0.208,0.03-0.297,0.059-0.297c2.134-0.667,3.083-2.445,3.986-4.268c2.771-5.616,5.558-11.219,8.357-16.819  C317.966,547.159,318.085,546.61,318.604,546.255z"/>
<path fill="#1E64B0" d="M573.916,568.957c0.667-0.578,1.229-0.37,1.719-0.459c1.171-0.208,1.57-0.771,1.142-1.867  c-0.459-1.186-1.066-2.327-1.601-3.497c-0.192-0.431-0.52-0.52-0.949-0.52c-2.414,0.016-4.846,0.016-7.261,0  c-0.43,0-0.741,0.104-0.948,0.534c-0.443,0.934-0.992,1.821-1.244,2.845c-0.342,1.305,0.147,2.06,1.467,2.416  c0.534,0.133,1.171-0.074,1.675,0.43c-1.082,0.399-6.698,0.444-8.136,0.104c0.016-0.09,0.016-0.252,0.045-0.252  c2.03-0.533,2.964-2.148,3.809-3.854c2.326-4.684,4.653-9.366,6.979-14.062c0.593-1.2,1.171-2.387,1.777-3.571  c0.179-0.341,0.253-0.756,0.683-0.919c0.489,0.297,0.578,0.801,0.785,1.229c2.785,5.72,5.571,11.439,8.373,17.16  c0.341,0.711,0.726,1.407,1.126,2.089c0.488,0.83,1.097,1.526,2.104,1.734c0.222,0.044,0.533,0.059,0.459,0.415  c-0.074,0.341-0.4,0.222-0.622,0.222c-2.964,0.015-5.928,0.015-8.892,0C575.664,569.12,574.908,569.238,573.916,568.957z"/>
<path fill="#1E64B0" d="M189.932,546.848c-0.044,0.179-0.044,0.252-0.074,0.268c-2.06,0.667-3.097,2.326-3.986,4.12  c-2.83,5.689-5.675,11.381-8.536,17.069c-0.237,0.476-0.311,1.23-0.889,1.261c-0.726,0.029-0.741-0.814-0.978-1.305  c-2.756-5.734-5.498-11.47-8.239-17.205c-0.326-0.666-0.667-1.317-0.993-1.984c-0.43-0.874-1.008-1.57-2.06-1.733  c-0.223-0.03-0.489-0.104-0.504-0.43c1.082-0.4,10.64-0.4,11.781,0.044c-0.474,0.444-1.052,0.237-1.541,0.326  c-1.467,0.297-1.778,0.771-1.156,2.147c1.082,2.432,2.237,4.831,3.378,7.231c0.859,1.823,1.734,3.631,2.638,5.513  c0.415-0.281,0.519-0.65,0.682-0.978c1.542-3.143,3.097-6.283,4.638-9.425c0.326-0.668,0.652-1.35,0.845-2.046  c0.341-1.244-0.133-1.94-1.393-2.312c-0.548-0.163-1.17-0.074-1.704-0.431C182.686,546.521,188.287,546.433,189.932,546.848z"/>
<path fill="#1E64B0" d="M496.666,546.892c-0.356,0.415-0.727,0.298-1.053,0.326c-1.896,0.208-2.431,0.728-2.431,2.623  c-0.029,4.49-0.016,8.98-0.016,13.472c0,1.036-0.015,2.073,0.03,3.11c0.059,1.35,0.622,1.912,1.984,2.104  c0.46,0.06,0.979-0.163,1.394,0.267c-0.192,0.104,0.074-0.015-0.029,0.163c-0.015,0.045-0.06,0.089-0.089,0.089  c-3.986,0.224-7.987,0.045-11.974,0.089c-0.237,0-0.489,0.03-0.696-0.178c0.104-0.607,0.593-0.37,0.934-0.4  c1.838-0.161,2.341-0.606,2.445-2.46c0.074-1.229,0.029-2.46,0.029-3.704c0-3.646,0-7.306,0-10.95c0-0.341,0-0.696,0-1.037  c-0.061-2.579-0.37-2.92-2.964-3.201c-0.192-0.015-0.386-0.015-0.46-0.267c0.06-0.326,0.326-0.298,0.562-0.312  C487.196,546.418,495.584,546.581,496.666,546.892z"/>
<path fill="#1E64B0" d="M264.145,547.011c0.029-0.191,0.089-0.341,0.252-0.341c4.09-0.015,8.195-0.015,12.285,0  c0.089,0,0.192,0.192,0.296,0.296c-0.371,0.431-0.845,0.224-1.26,0.282c-1.601,0.236-2.148,0.8-2.164,2.43  c-0.029,3.603-0.015,7.202-0.015,10.803c0,1.823-0.015,3.66,0.015,5.483c0.03,1.941,0.504,2.445,2.416,2.593  c0.326,0.03,0.696-0.117,1.022,0.342c-0.815,0.488-1.674,0.192-2.489,0.252c-0.83,0.06-1.675,0.016-2.52,0.016  c-0.889,0-1.778,0-2.667,0c-0.845,0-1.675,0.015-2.52,0c-0.874-0.03-1.749,0.104-2.623-0.09c-0.015-0.638,0.445-0.475,0.741-0.488  c2.119-0.178,2.563-0.593,2.638-2.727c0.059-1.526,0.015-3.054,0.015-4.595c0-3.408,0-6.816,0-10.226c0-0.148,0-0.296,0-0.444  c-0.089-2.325,0.03-3.2-3.082-3.394C264.367,547.174,264.248,547.07,264.145,547.011z"/>
<path fill="#1E64B0" d="M162.443,569.046c-4.46,0-8.713,0-12.981,0c0.104-0.682,0.593-0.459,0.934-0.489  c1.853-0.163,2.341-0.606,2.46-2.443c0.074-1.127,0.03-2.269,0.03-3.409c0-3.704,0-7.409,0-11.099c0-0.298,0-0.594,0-0.891  c-0.074-2.489,0-3.349-3.097-3.525c-0.163-0.016-0.252-0.09-0.311-0.237c0.785-0.385,6.401-0.548,11.958-0.326  c0.311,0.015,0.726-0.133,0.845,0.371c-0.355,0.385-0.83,0.178-1.245,0.236c-1.601,0.236-2.134,0.801-2.149,2.444  c-0.03,4.238-0.015,8.491-0.015,12.729c0,1.289-0.015,2.562,0.015,3.853c0.044,1.541,0.593,2.104,2.119,2.282  C161.406,568.587,161.88,568.364,162.443,569.046z"/>
<path fill="#1E64B0" d="M525.236,546.892c1.452-0.398,11.914-0.369,12.951,0.017c-0.104,0.398-0.444,0.281-0.712,0.311  c-2.237,0.208-2.712,0.712-2.727,2.993c-0.015,3.557-0.015,7.113-0.015,10.67c0,1.675-0.017,3.364,0.015,5.038  c0.029,1.972,0.562,2.49,2.578,2.638c0.281,0.017,0.593-0.044,0.83,0.193c0.06,0.37-0.224,0.385-0.46,0.385  c-3.956,0-7.897,0.016-11.854,0c-0.178,0-0.386,0-0.519-0.311c0.281-0.445,0.771-0.237,1.155-0.282  c1.704-0.146,2.281-0.696,2.297-2.43c0.029-5.483,0.029-10.966,0-16.449c0-1.615-0.577-2.193-2.163-2.431  C526.185,547.174,525.71,547.352,525.236,546.892z"/>
<path fill="#2064B0" d="M194.645,576.544c0.444,0,1.097,0.237,1.734,0.475c0.963,0.355,1.926,0.728,2.919,1.009  c1.215,0.354,1.512,0.207,2.223-0.815c0.059-0.074,0.074-0.178,0.133-0.267c0.192-0.355,0.489-0.475,0.874-0.37  c0.371,0.104,0.312,0.459,0.312,0.726c0.089,2.46-2.179,4.461-4.668,4.12c-0.875-0.119-1.719-0.386-2.549-0.727  c-0.637-0.268-1.29-0.505-1.941-0.696c-1.274-0.37-1.556-0.268-2.238,0.934c-0.222,0.4-0.474,0.622-0.918,0.52  c-0.563-0.133-0.4-0.593-0.356-0.963C190.436,578.189,192.155,576.589,194.645,576.544z"/>
<path fill="#FFFFFF" d="M515.411,596.001c0.104,1.927,0.03,3.854-0.548,5.721c-0.208,0.651-0.445,1.318-0.741,1.927  c-1.141,2.342-3.008,3.602-5.646,3.615c-2.683,0.016-4.624-1.215-5.765-3.646c-1.423-2.993-1.586-6.18-1.378-9.41  c0.089-1.481,0.281-2.948,0.755-4.356c0.312-0.889,0.712-1.719,1.245-2.504c2.475-3.676,8.491-3.438,10.596,0.475  c0.903,1.688,1.318,3.497,1.468,5.38C515.471,594.119,515.411,595.067,515.411,596.001z"/>
<path fill="#FFFFFF" d="M444.281,596.061c0.104,1.928,0.015,3.854-0.563,5.705c-0.207,0.652-0.443,1.306-0.755,1.928  c-1.156,2.341-3.038,3.57-5.661,3.57s-4.505-1.215-5.689-3.557c-0.874-1.748-1.215-3.631-1.394-5.557  c-0.236-2.771-0.074-5.514,0.711-8.211c0.281-0.947,0.727-1.821,1.289-2.651c2.46-3.616,8.491-3.395,10.581,0.562  c0.903,1.704,1.304,3.513,1.452,5.38C444.341,594.179,444.281,595.112,444.281,596.061z"/>
<path fill="#FFFFFF" d="M234.166,595.972c0.089,1.928,0.03,3.854-0.548,5.721c-0.192,0.607-0.4,1.229-0.667,1.809  c-1.156,2.475-3.067,3.809-5.838,3.778c-2.697-0.029-4.579-1.318-5.705-3.749c-1.363-2.964-1.526-6.105-1.319-9.276  c0.089-1.467,0.267-2.949,0.755-4.355c0.296-0.846,0.667-1.632,1.156-2.388c2.43-3.853,8.654-3.63,10.744,0.432  c0.874,1.703,1.274,3.512,1.422,5.394C234.21,594.193,234.166,595.083,234.166,595.972z"/>
<path fill="#1478BC" d="M215.788,276.516c0.341,0.459,0.296,0.978,0.252,1.496c-1.541,2.682-2.727,5.557-3.972,8.387  c-1.911,4.388-3.527,8.877-4.979,13.427c-0.133,0.43-0.296,0.829-0.296,1.29c-0.474,0.415-0.637,0.978-0.815,1.541  c-2.712,8.832-4.771,17.797-6.001,26.97c-0.563,4.253-0.948,8.521-1.23,12.804c-0.341,5.23-0.311,10.461-0.119,15.692  c0.074,1.956,0.06,3.94,0.415,5.897c0.133,0.727-0.089,1.318-0.563,1.912c-10.477,13.113-23.532,22.688-39.255,28.6  c-6.772,2.549-13.722,4.416-20.85,5.512c-6.357,0.979-12.744,1.334-19.19,0.993c-7.483-0.386-14.804-1.556-21.991-3.646  c-13.174-3.839-25.014-10.211-35.432-19.132c-13.93-11.915-23.695-26.614-29.267-44.086c-2.623-8.225-4.104-16.655-4.475-25.28  c-0.444-10.552,0.904-20.881,3.853-31.017c0.074-0.237,0.074-0.489,0.119-0.726c0.192-0.416,0.385-0.83,0.578-1.23  c0.312-1.082,1.038-0.786,1.764-0.548c2.667,0.889,5.275,1.956,7.928,2.903c3.26,1.172,6.624,1.972,9.87,3.143  c1.778,0.637,1.882,0.711,1.882,2.652c0.015,8.537,0,17.072,0,25.623c0,2.178,0.089,2.281,2.223,2.281c2.771,0,5.527,0.016,8.299,0  c1.778-0.015,1.971-0.207,1.985-1.94c0.015-2.476-0.015-4.935,0.015-7.41c0.015-1.615,0.178-1.733,1.837-1.646  c1.393,0.164,2.652,0.785,3.942,1.26c12.433,4.549,25.192,7.795,38.351,9.291c6.521,0.742,13.07,0.92,19.65,0.49  c17.057-1.111,33.401-5.261,49.391-11.069c2.445-0.89,2.652-0.741,2.667,1.926c0.015,2.224,0.015,4.446,0,6.668  c0,1.052,0.445,1.526,1.512,1.526c2.712-0.016,5.438,0.015,8.15-0.016c0.607,0,1.186-0.104,1.615-0.593  c0.459-0.563,0.326-1.215,0.326-1.853c0.015-7.795,0-15.574,0.015-23.369c0-1.941,0.208-2.223,1.986-2.741  c6.016-1.749,11.988-3.586,17.856-5.778C214.455,276.516,215.077,276.1,215.788,276.516z"/>
<path fill="#207FC3" d="M215.788,276.516c-1.897,0.682-3.793,1.348-5.69,2.06c-3.067,1.155-6.268,1.911-9.351,3.008  c-1.615,0.578-3.275,1.022-4.935,1.481c-1.778,0.49-1.423,0.459-1.423,1.897c-0.015,8.091,0,16.197-0.015,24.288  c0,0.562,0.237,1.201-0.296,1.675c-0.593-0.682-0.4-1.497-0.4-2.268c-0.015-13.515-0.015-27.029-0.015-40.544  c0-0.623,0.119-1.274-0.208-1.854c-0.637-0.015-0.934,0.43-1.259,0.771c-8.654,8.654-18.301,16.062-28.704,22.479  c-1.022,0.638-1.956,1.541-3.305,1.497c-1.734,0.016-3.423,0.4-5.127,0.594c-6.224,0.711-12.463,1.17-18.731,1.451  c-3.053,0.133-6.105,0.252-9.173,0.208c-0.859-0.015-1.393,0.312-1.793,1.022c-0.993,0-0.711-0.801-0.667-1.26  c0.548-5.69,0.874-11.41,2.148-16.998c0.993-4.371,3.586-7.854,6.639-11.01c1.274-1.318,2.608-2.549,3.527-4.164  c3.053-5.408,2.578-10.744-1.719-15.589c-3.245-3.659-6.417-7.364-9.41-11.218c-0.267-0.341-0.519-0.727-1.126-0.948  c-0.341,1.408-0.385,2.815-0.533,4.193c-0.385,3.526-0.815,7.054-1.704,10.507c-1.423,5.512-4.298,10.254-7.691,14.729  c-0.889,1.187-1.749,2.387-2.667,3.558c-4.816,6.149-3.675,11.854,1.274,16.805c2.741,2.757,5.602,5.409,8.373,8.15  c0.355,0.341,0.726,0.682,0.978,1.096c0.222,0.356,0.385,0.728-0.148,0.978c-0.622,0.238-1.274,0.209-1.912,0.193  c-5.853-0.222-11.722-0.474-17.56-1.037c-5.394-0.504-10.803-1.037-16.152-1.896c-0.252-0.044-0.489,0.015-0.726,0.059  c-0.741,0.09-1.334-0.267-1.927-0.637c-7.157-4.387-13.989-9.232-20.316-14.773c-2.964-2.595-5.927-5.203-8.669-8.062  c-0.222-0.237-0.43-0.548-0.874-0.534c-0.386,0.459-0.208,1.022-0.208,1.542c-0.015,13.768-0.015,27.533,0,41.301  c0,2.104,0.029,2.118,2.164,2.118c2.667,0,5.334,0.015,7.987,0c1.511-0.015,1.704-0.208,1.733-1.719  c0.044-2.563-0.029-5.127,0.044-7.69c0.015-0.549,0.074-1.156,0.727-1.32c0.682-0.178,1.274-0.029,1.511,0.757  c-1.556-0.104-1.556-0.104-1.556,1.438c0,2.519,0,5.037,0,7.557c0,1.793-0.237,2.016-2.074,2.016c-3.068,0-6.12,0-9.188,0  c-0.444,0-0.889-0.016-1.319-0.104c-0.459-0.104-0.771-0.4-0.755-0.949c0.015-0.4,0-0.785,0-1.186c0-8.789,0-17.576,0-26.363  c0-1.407,0-1.422-1.274-1.822c-2.845-0.889-5.72-1.704-8.551-2.667c-3.349-1.142-6.668-2.401-9.973-3.66  c-0.593-0.222-0.889-0.074-1.245,0.312c0.119-0.89,0.356-1.734,0.652-2.563c5.112-14.448,13.263-26.956,24.243-37.625  c9.84-9.558,21.146-16.79,34.143-21.31c7.587-2.638,15.412-4.193,23.399-4.964c5.068-0.489,10.136-0.667,15.233-0.4  c21.917,1.141,40.811,9.499,57.23,23.844c10.996,9.603,19.546,20.983,25.103,34.526c1.038,2.505,1.941,5.068,2.905,7.603  C215.669,275.537,215.818,275.996,215.788,276.516z"/>
<path fill="#FFFFFF" d="M483.67,596.298c-0.06,2.134-0.237,4.238-1.066,6.238c-1.261,3.038-3.469,4.416-6.729,4.237  c-1.438-0.073-1.823-0.459-1.882-1.896c-0.015-0.444-0.015-0.89-0.015-1.334c0-5.72,0-11.455,0-17.175c0-1.229,0.015-1.26,1.229-1.2  c0.889,0.044,1.778,0.104,2.638,0.296c2.326,0.504,3.734,2.104,4.668,4.18c0.815,1.838,1.037,3.793,1.156,5.765  C483.685,595.705,483.67,596.001,483.67,596.298z"/>
<path fill="#FFFFFF" d="M113.304,596.238c0.044,2.237-0.192,4.431-1.111,6.506c-1.304,2.948-3.675,4.327-6.861,4.001  c-1.2-0.119-1.585-0.444-1.6-1.66c-0.044-3.111-0.03-6.209-0.044-9.32c0-3.156-0.015-6.312,0-9.47c0-1.155,0.029-1.155,1.141-1.155  c4.268,0.029,6.668,1.867,7.869,5.973C113.201,592.801,113.334,594.505,113.304,596.238z"/>
<path fill="#FEFEFF" d="M225.26,552.79c0-1.378,0.015-2.771-0.015-4.149c-0.015-0.651,0.252-0.858,0.875-0.845  c1.141,0,2.267,0.015,3.378,0.281c1.645,0.386,2.712,1.379,3.097,3.038c0.252,1.111,0.282,2.268,0.015,3.379  c-0.37,1.57-1.393,2.607-2.979,2.964c-1.156,0.267-2.341,0.341-3.527,0.341c-0.637,0-0.874-0.223-0.874-0.858  C225.275,555.546,225.26,554.168,225.26,552.79z"/>
<path fill="#FEFFFF" d="M350.775,558.095c-0.03,2.075-0.163,4.136-1.023,6.076c-1.2,2.728-3.274,3.986-6.224,3.764  c-1.216-0.089-1.557-0.399-1.676-1.614c-0.015-0.192-0.015-0.4-0.015-0.594c0-5.571,0-11.144,0-16.716c0-1.229,0.03-1.229,1.245-1.2  c3.883,0.09,5.986,1.72,7.113,5.453C350.671,554.85,350.73,556.465,350.775,558.095z"/>
<path fill="#FFFFFF" d="M296.716,557.828c-0.015,2.445-0.237,4.49-1.096,6.417c-1.186,2.638-3.083,3.808-5.958,3.704  c-1.497-0.06-1.852-0.37-1.852-1.837c-0.015-5.766-0.015-11.529,0-17.31c0-0.979,0.03-1.008,0.993-0.979  c3.868,0.074,6.387,1.305,7.572,6.55C296.657,555.605,296.775,556.895,296.716,557.828z"/>
<path fill="#FCFDFE" d="M554.889,552.864c0.029,0.667-0.073,1.438-0.341,2.192c-0.785,2.163-2.86,2.683-4.698,2.52  c-0.354-0.029-0.519-0.252-0.519-0.593c0-0.594-0.015-1.187-0.015-1.778c0-2.074-0.016-4.149,0-6.225  c0.015-1.171,0.104-1.244,1.289-1.171C553.525,548.019,554.903,549.589,554.889,552.864z"/>
<path fill="#FCFDFE" d="M190.08,599.766c1.349-2.727,2.638-5.306,4.075-8.194c1.393,2.875,2.638,5.453,3.957,8.194  C195.4,599.766,192.866,599.766,190.08,599.766z"/>
<path fill="#FCFCFE" d="M298.391,599.795c-2.549,0-5.083,0-7.839,0c1.349-2.712,2.623-5.305,3.912-7.913  C295.249,592.667,297.946,598.105,298.391,599.795z"/>
<path fill="#FCFDFE" d="M379.079,599.824c-2.757,0-5.261,0-7.766,0c0.089-0.948,2.607-6.269,3.854-8.105  C376.456,594.371,377.716,596.979,379.079,599.824z"/>
<path fill="#FDFDFE" d="M319.67,561.355c-2.341,0-4.683,0-7.201,0c1.229-2.506,2.4-4.892,3.571-7.276  C316.796,554.79,319.271,559.755,319.67,561.355z"/>
<path fill="#FDFEFE" d="M574.331,561.385c-2.594,0-4.905,0-7.439,0c1.245-2.534,2.432-4.92,3.749-7.617  C571.915,556.405,573.071,558.776,574.331,561.385z"/>
<path fill="#1F93D1" d="M344.045,322.188c-3.053-3.469-4.787-7.47-4.668-12.123c0.089-3.94,1.63-7.379,4.016-10.461  c2.993-3.869,5.868-7.824,8.624-11.855c4.164-6.09,6.685-12.833,8.076-20.035c0.712-3.734,1.112-7.513,1.497-11.292  c0.208-2.017,0.415-4.017,0.638-6.03c0.029-0.326,0.06-0.683,0.415-1.009c0.934,0.711,1.72,1.585,2.431,2.534  c4.387,5.854,9.084,11.439,14.033,16.834c3.586,3.912,5.452,8.58,5.187,13.915c-0.252,5.022-2.326,9.335-5.838,12.951  c-2.445,2.52-4.861,5.053-6.95,7.884c-2.638,3.586-4.594,7.482-5.364,11.898c-0.267,1.513-0.444,3.023-0.682,4.535  c-0.104,0.683-0.297,1.349-0.608,1.971c-0.385,0.342-0.874,0.46-1.362,0.46c-2.846-0.03-5.676,0.089-8.535-0.148  C351.306,321.891,347.675,321.994,344.045,322.188z"/>
<path fill="#1E64B0" d="M266.202,402.119c0-4.194,0-8.389,0-12.596c0-0.697-0.015-1.379-0.044-2.076  c-0.133-2.756-1.067-3.926-3.734-4.578c-0.771-0.192-1.556-0.268-2.327-0.459c-0.934-0.223-1.156-0.549-1.141-1.438  c0.015-0.904,0.356-1.26,1.26-1.26c6.268,0.03,12.537,0.074,18.805,0.104c1.082,0,2.164,0.03,3.26-0.073  c0.86-0.089,1.245,0.267,1.349,1.007c0.119,0.845-0.163,1.35-0.978,1.556c-0.948,0.237-1.941,0.355-2.89,0.623  c-2.282,0.622-3.053,1.585-3.334,3.941c-0.148,1.229-0.104,2.46-0.119,3.704c-0.044,6.816-0.296,13.634-0.03,20.436  c0.133,3.395,0.252,6.817,1.141,10.121c1.141,4.224,3.334,7.721,7.335,9.751c7.335,3.765,16.449,1.541,20.183-7.022  c1.438-3.29,2.237-6.759,2.283-10.345c0.073-6.224,0.266-12.448,0.014-18.657c-0.088-2.223-0.281-4.431-0.577-6.639  c-0.431-3.318-1.956-4.875-5.246-5.527c-0.728-0.147-1.468-0.222-2.193-0.34c-0.948-0.164-1.362-0.607-1.349-1.438  c0.029-0.785,0.371-1.111,1.408-1.126c6.224-0.016,12.447-0.016,18.671,0.015c1.127,0,1.408,0.267,1.481,1.052  c0.074,0.846-0.297,1.289-1.26,1.498c-0.533,0.118-1.066,0.178-1.601,0.281c-2.771,0.562-4.431,2.312-4.802,5.112  c-0.311,2.297-0.519,4.608-0.548,6.935c-0.073,5.928,0,11.855-0.118,17.782c-0.104,4.416-0.726,8.758-2.549,12.833  c-3.586,8.003-9.869,12.062-18.568,12.419c-3.111,0.133-6.224-0.119-9.247-0.964c-7.78-2.178-12.196-7.438-13.722-15.278  c-0.489-2.519-0.652-5.082-0.652-7.661c0-3.896,0-7.794,0-11.707C266.305,402.119,266.246,402.119,266.202,402.119z"/>
<path fill="#1E64B0" d="M402.371,378.721c4.683-0.074,9.438,0.771,14.152,1.881c1.036,0.237,1.569,0.771,1.719,1.897  c0.459,3.571,1.037,7.127,1.556,10.685c0.134,0.947-0.118,1.377-0.874,1.614c-0.919,0.282-1.66,0.06-2.045-0.667  c-0.208-0.385-0.341-0.814-0.489-1.23c-0.562-1.645-1.304-3.2-2.297-4.623c-1.927-2.785-4.52-4.697-7.78-5.586  c-3.63-0.979-7.319-1.067-10.979-0.164c-5.749,1.408-9.677,5.113-12.447,10.182c-1.793,3.29-2.771,6.861-3.201,10.565  c-0.682,6.03-0.028,11.93,2.326,17.561c2.521,6.046,6.698,10.418,13.013,12.521c7.734,2.578,15.426,0.06,20.168-6.564  c1.065-1.481,1.984-3.053,2.903-4.639c0.639-1.111,1.912-1.26,2.801-0.342c0.37,0.371,0.298,0.83,0.163,1.245  c-0.236,0.859-0.532,1.689-0.8,2.534c-0.89,2.771-1.867,5.513-2.935,8.226c-0.504,1.304-1.35,1.926-2.697,2.162  c-4.282,0.728-8.55,1.497-12.907,1.676c-9.246,0.37-17.768-1.66-24.896-7.898c-5.379-4.713-8.165-10.772-8.816-17.855  c-0.445-4.892,0.147-9.662,1.926-14.241c2.993-7.661,8.536-12.789,16.05-15.886C391.183,379.609,396.592,378.631,402.371,378.721z"/>
<path fill="#1E64B0" d="M445.227,437.595c-5.911,0.268-10.312-0.756-14.58-2.415c-1.009-0.386-1.587-1.155-1.765-2.208  c-0.606-3.542-1.229-7.099-1.808-10.654c-0.192-1.216,0.044-1.675,0.903-2.104c1.126-0.562,1.646-0.297,2.061,0.918  c1.407,4.135,3.541,7.824,6.95,10.655c3.215,2.682,6.846,3.601,10.921,2.399c2.801-0.829,4.712-2.593,5.676-5.363  c1.63-4.64,0.459-8.848-3.379-12.122c-1.245-1.066-2.608-1.956-4.03-2.741c-2.46-1.363-4.95-2.683-7.38-4.09  c-2.49-1.438-4.771-3.143-6.728-5.29c-6.417-7.024-3.942-18.687,4.09-23.089c2.771-1.512,5.72-2.415,8.86-2.696  c4.343-0.399,8.565,0.296,12.716,1.481c1.08,0.312,1.688,1.009,1.837,2.09c0.43,3.127,0.83,6.254,1.245,9.396  c0.089,0.652,0,1.156-0.771,1.363c-0.948,0.252-1.556,0.147-1.941-0.548c-0.236-0.43-0.369-0.92-0.532-1.379  c-0.919-2.488-2.193-4.741-4.12-6.594c-3.512-3.379-7.942-3.541-11.662-1.853c-2.815,1.274-4.164,3.675-4.639,6.624  c-0.549,3.395,0.577,6.225,3.098,8.521c1.688,1.556,3.646,2.682,5.646,3.777c2.639,1.438,5.291,2.891,7.913,4.357  c1.513,0.845,2.936,1.837,4.238,2.979c5.157,4.445,6.639,9.943,4.713,16.419c-1.586,5.29-5.306,8.506-10.27,10.521  C449.717,437.076,446.887,437.625,445.227,437.595z"/>
<path fill="#1E64B0" d="M345.141,378.689c3.217-0.06,6.521,0.697,9.812,1.586c1.11,0.295,1.63,0.992,1.778,2.074  c0.28,2.149,0.606,4.297,0.845,6.461c0.089,0.846,0.252,1.646,0.459,2.461c0.267,1.037-0.06,1.525-1.126,1.853  c-1.052,0.312-1.646,0.074-1.912-0.993c-0.533-2.208-1.646-4.12-2.934-5.927c-2.608-3.616-6.698-5.127-10.76-4.253  c-6.55,1.422-8.728,8.506-5.72,13.633c0.859,1.48,2.09,2.623,3.438,3.63c1.748,1.304,3.676,2.297,5.615,3.29  c2.816,1.438,5.617,2.875,8.226,4.684c2.594,1.809,4.787,3.956,6.225,6.816c3.26,6.461,1.585,14.122-4.104,18.864  c-3.35,2.785-7.291,4.001-11.528,4.578c-5.128,0.712-10.003-0.192-14.805-1.94c-1.63-0.593-2.46-1.586-2.683-3.318  c-0.399-3.336-0.979-6.641-1.66-9.914c-0.147-0.696-0.267-1.363,0.489-1.839c1.245-0.784,1.956-0.593,2.46,0.815  c1.229,3.482,2.979,6.653,5.572,9.32c2.208,2.253,4.741,3.896,7.987,4.061c3.808,0.193,7.038-1.021,9.188-4.297  c2.089-3.201,2.104-6.595,0.385-9.988c-0.858-1.704-2.178-3.038-3.659-4.208c-1.631-1.29-3.453-2.281-5.275-3.274  c-2.252-1.215-4.534-2.4-6.698-3.794c-1.793-1.155-3.423-2.489-4.935-4.001c-7.246-7.231-4.269-18.924,2.964-23.207  C336.517,379.652,340.562,378.616,345.141,378.689z"/>
<path fill="#1478BD" d="M344.045,322.188c0.414-0.504,0.979-0.607,1.585-0.607c2.904,0.016,5.839-0.208,8.714,0.059  c3.497,0.326,6.979,0.104,10.478,0.223c-0.029,2.964-0.504,5.897-0.727,8.847c-0.208,2.801-0.534,5.587-0.801,8.388  c-0.06,0.682-0.074,1.35-0.354,1.971c-0.489,0.061-0.652-0.295-0.874-0.547c-4.979-5.69-10.463-10.893-16.006-16.004  C345.319,323.816,344.459,323.193,344.045,322.188z"/>
<path fill="#FDC010" d="M431.179,325.684c-0.044,0.178-0.163,0.282-0.341,0.312C430.867,325.802,430.986,325.698,431.179,325.684z"/>
<path fill="#FDB714" d="M407.498,361.648c0.089-0.119,0.178-0.236,0.282-0.355c0,0.104,0,0.208,0,0.296  C407.691,361.619,407.603,361.634,407.498,361.648z"/>
<path fill="#FFFFFF" d="M160.336,290.786c1.837-0.757,3.438-1.912,5.098-2.964c9.691-6.18,18.642-13.278,26.792-21.383  c0.771-0.756,0.771-0.756,1.763-1.067c0.178,0.415,0.104,0.845,0.104,1.274c0.015,14.271,0.03,28.541,0.044,42.797  c0,0.488-0.044,0.992-0.059,1.481c-0.504,0.415-1.052,0.638-1.749,0.622c-3.008-0.029-6.017-0.015-9.04-0.029  c-1.215,0-1.245-0.043-1.26-1.26c-0.015-2.667,0-5.335-0.015-8.002c0-0.488,0.104-0.979-0.119-1.467  c-0.415-0.208-0.755,0.061-1.111,0.193c-10.018,3.822-20.302,6.742-30.808,8.847c-5.616,1.126-11.277,1.985-16.967,2.476  c-6.847,0.592-13.693,0.519-20.539-0.164c-14.774-1.467-28.985-5.216-42.856-10.432c-0.37-0.133-0.755-0.223-1.126-0.341  c-1.853-0.978-1.956-0.919-1.956,1.067c0,2.666,0.015,5.334,0,8.002c0,1.377-0.03,1.407-1.423,1.407c-3.26,0-6.52,0-9.78-0.015  c-1.422,0-1.422-0.016-1.422-1.526c-0.015-3.853-0.015-7.706-0.015-11.544c0-10.609,0.015-21.22,0.015-31.831  c0-0.489,0-0.978,0-1.438c0.607-0.208,0.785,0.252,1.022,0.489c4.075,4.104,8.417,7.897,12.833,11.631  c3.734,3.158,7.869,5.779,11.825,8.654c2.075,1.512,4.238,2.875,6.58,3.957c1.26,0.045,2.208,0.83,3.201,1.438  c6.654,4.03,13.855,6.772,21.339,8.669c4.771,1.201,9.676,1.602,14.67,1.393c12.033-0.474,22.806-4.742,33.224-10.313  c0.237-0.134,0.474-0.253,0.711-0.37c0.104-0.061,0.222-0.104,0.326-0.148c0.163-0.059,0.326-0.104,0.504-0.104  C160.218,290.771,160.277,290.786,160.336,290.786z"/>
<path fill="#FFFFFF" d="M101.609,330.707c0.356-0.016,0.445-0.341,0.637-0.562c2.504-3.008,5.779-4.564,9.618-4.965  c1.615-0.162,3.245-0.178,4.86,0.178c3.764,0.846,6.091,3.306,6.772,7.307c0.222,1.26,0.341,2.534,0.341,3.822  c-0.015,5.291-0.015,10.566-0.015,15.856c0,0.253-0.015,0.489,0,0.741c0.06,0.667-0.281,0.846-0.889,0.83  c-1.437-0.03-2.86-0.016-4.297-0.016c-0.889,0-1.778-0.015-2.667,0c-0.503,0-0.726-0.207-0.696-0.711c0.015-0.444,0-0.889,0-1.334  c0-4.549,0-9.084,0-13.633c0-0.947-0.059-1.867-0.282-2.785c-0.593-2.521-2.267-3.897-4.831-3.957  c-3.186-0.074-6.861,2.563-7.854,5.616c-0.163,0.489-0.119,0.978-0.119,1.468c0,4.638,0,9.291,0,13.93  c0,1.423-0.015,1.423-1.467,1.423c-1.971,0-3.957,0.015-5.927,0c-1.111-0.015-1.141-0.03-1.141-1.156c-0.015-4.741,0-9.483,0-14.226  c0-1.082-0.03-2.163-0.296-3.23c-0.667-2.578-2.593-4.029-5.231-3.777c-3.379,0.326-5.75,2.134-7.247,5.142  c-0.296,0.606-0.296,1.229-0.296,1.882c0,4.698,0,9.38,0,14.078c0,1.29-0.015,1.29-1.304,1.304c-1.971,0.015-3.957,0.015-5.928,0  c-1.319,0-1.333-0.015-1.333-1.422c0-4.149,0-8.299,0-12.448c0-4.4,0-8.787,0-13.188c0-1.289,0.015-1.305,1.319-1.319  c1.734-0.015,3.453-0.015,5.187,0c1.186,0.015,1.186,0.03,1.2,1.261c0.015,1.141,0,2.267,0,3.393  c0.43,0.252,0.548-0.133,0.711-0.326c2.563-2.994,5.942-4.327,9.75-4.684c1.616-0.147,3.246-0.147,4.875,0.164  c2.875,0.562,4.935,2.134,6.165,4.787C101.313,330.337,101.313,330.633,101.609,330.707z"/>
<path fill="#FFFFFF" d="M138.153,342.266c0.311,2.521,1.6,4.416,3.823,5.617c3.66,1.971,7.32,1.674,10.862-0.385  c0.682-0.4,1.245-0.979,1.689-1.645c0.208-0.312,0.4-0.504,0.845-0.4c2.193,0.548,4.401,1.052,6.698,1.6  c-0.563,1.274-1.393,2.164-2.312,2.979c-2.875,2.549-6.268,3.868-10.047,4.282c-4.564,0.504-8.98,0.045-13.07-2.223  c-3.527-1.941-6.017-4.787-7.098-8.713c-1.512-5.482,0.533-11.173,5.231-14.699c6.594-4.965,17.723-4.816,24.14,0.34  c3.675,2.963,5.335,6.892,5.142,11.588c-0.059,1.453-0.118,1.453-1.541,1.453c-7.558,0-15.115,0-22.673,0.016  C139.279,342.073,138.73,341.939,138.153,342.266z"/>
<path fill="#FFFFFF" d="M195.205,328.618c-1.038,1.334-2.075,2.638-3.083,3.957c-0.311,0.415-0.652,0.312-1.037,0.133  c-0.889-0.415-1.778-0.858-2.697-1.2c-2.949-1.082-5.972-1.689-9.143-1.066c-0.534,0.104-1.052,0.281-1.541,0.519  c-1.038,0.489-1.601,1.319-1.586,2.46c0.03,1.126,0.726,1.778,1.734,2.164c1.304,0.489,2.638,0.83,3.986,1.126  c2.4,0.533,4.816,1.052,7.187,1.763c1.274,0.385,2.519,0.859,3.69,1.498c3.527,1.911,4.564,5.75,2.534,9.231  c-0.845,1.452-2.045,2.519-3.512,3.305c-1.897,1.037-3.942,1.556-6.076,1.778c-6.431,0.637-12.581-0.415-18.435-3.171  c-0.133-0.06-0.267-0.134-0.385-0.222c-0.074-0.061-0.119-0.148-0.252-0.326c0.978-1.408,2-2.86,2.993-4.312  c0.312-0.443,0.623-0.326,1.008-0.117c1.274,0.666,2.579,1.244,3.927,1.732c2.963,1.066,6.001,1.57,9.158,1.334  c1.052-0.089,2.06-0.312,2.949-0.875c1.808-1.141,1.719-3.29-0.208-4.223c-1.971-0.949-4.149-1.26-6.253-1.75  c-1.675-0.399-3.364-0.784-5.039-1.199c-1.052-0.268-2.075-0.652-3.053-1.111c-3.868-1.822-5.083-5.646-2.979-9.395  c1.052-1.883,2.667-3.143,4.594-4.031c1.897-0.874,3.912-1.35,6.001-1.497c5.053-0.356,9.81,0.726,14.359,2.831  c0.223,0.104,0.445,0.222,0.652,0.341C194.849,328.352,194.968,328.439,195.205,328.618z"/>
<path fill="#FFFFFF" d="M55.968,339.762c0-4.298,0-8.595,0-12.893c0-1.305,0.015-1.319,1.289-1.333c1.927-0.015,3.853-0.015,5.779,0  c1.482,0,1.482,0.015,1.482,1.437c0,2.965,0,5.928,0,8.893c0,5.438,0,10.861,0,16.301c0,0.341-0.015,0.695,0,1.037  c0.015,0.504-0.208,0.711-0.711,0.711c-2.371,0-4.742-0.016-7.113,0c-0.726,0-0.756-0.43-0.756-0.963c0-3.156,0-6.312,0-9.484  C55.968,342.236,55.968,340.991,55.968,339.762z"/>
<path fill="#FEFEFF" d="M60.31,321.607c-1.186,0-2.356-0.015-3.542,0c-0.548,0.016-0.8-0.191-0.8-0.771  c0.015-1.866,0.03-3.733,0-5.603c-0.015-0.682,0.326-0.814,0.904-0.814c2.268,0.016,4.52,0.016,6.787,0  c0.607,0,0.889,0.193,0.875,0.846c-0.03,1.822-0.03,3.646,0,5.452c0.015,0.623-0.193,0.904-0.845,0.89  C62.577,321.594,61.436,321.607,60.31,321.607z"/>
<path fill="#FFFFFF" d="M122.934,292.846c-2.534-2.965-5.379-5.632-8.239-8.285c-1.452-1.349-2.86-2.711-3.927-4.4  c-2.682-4.282-2.742-8.58,0.044-12.803c1.63-2.476,3.453-4.816,5.231-7.172c4.609-6.091,6.846-13.041,7.558-20.568  c0.222-2.46,0.548-4.905,0.845-7.439c0.815,0.193,1.171,0.815,1.571,1.319c1.645,2.03,3.245,4.104,4.89,6.135  c1.423,1.765,2.934,3.468,4.49,5.127c2.771,2.949,4.253,6.372,3.912,10.492c-0.267,3.29-1.704,6.046-3.957,8.401  c-1.645,1.705-3.29,3.408-4.698,5.336c-2.148,2.919-3.319,6.164-3.927,9.765c-0.786,4.638-1.022,9.306-1.615,13.959  c-0.074,0.533-0.044,1.082-0.06,1.63c-0.237,0.756-0.682,0.43-1.037,0.148C123.497,294.045,123.067,293.542,122.934,292.846z"/>
<path fill="#1478BC" d="M122.934,292.846c0.475,0.488,0.963,0.978,1.423,1.481c0.252,0.282,0.474,0.312,0.711-0.015  c0.519-0.386,0.089-1.053,0.4-1.482c2.712,0,5.438,0.252,8.106-0.074c2.593-0.311,5.201,0.119,7.765-0.488  c0.519-0.119,1.082-0.031,1.615-0.031c1.971,0.016,3.897-0.267,5.838-0.533c0.489-0.074,0.993-0.09,1.467-0.044  c1.333,0.104,2.638-0.237,3.941-0.415c1.838-0.237,3.705-0.311,5.513-0.756c0.252-0.06,0.474,0.09,0.637,0.297h-0.015  c-0.178,0.133-0.474,0.089-0.593,0.326l0.015-0.016c-0.192,0.119-0.504,0.074-0.593,0.371c-2.312,1.512-4.846,2.639-7.335,3.809  c-5.32,2.52-10.862,4.459-16.627,5.66c-5.675,1.187-11.41,1.586-17.219,0.979c-10.151-1.066-19.398-4.698-28.23-9.604  c-1.2-0.666-2.46-1.26-3.571-2.09c0.356-0.519,0.904-0.43,1.349-0.311c2.43,0.593,4.92,0.875,7.395,1.052  c2.445,0.179,4.846,0.696,7.306,0.741c1.438,0.029,2.934,0.089,4.372,0.459c0.148,0.044,0.296,0.074,0.444,0.059  c2.223-0.178,4.401,0.326,6.609,0.312C116.754,292.504,119.822,293.023,122.934,292.846z"/>
<path fill="#FFC50F" d="M448.665,365.413c-0.297,0-0.578,0-0.874,0C448.087,365.072,448.384,365.072,448.665,365.413z"/>
<path fill="#FFC50F" d="M442.159,318.021c0.104-0.104,0.208-0.192,0.297-0.295C442.353,317.83,442.248,317.918,442.159,318.021z"/>
<path fill="#F7921E" d="M292.193,326.632c0.104,0.089,0.192,0.193,0.297,0.282C292.386,326.811,292.297,326.721,292.193,326.632z"/>
<path fill="#F68B1F" d="M292.49,326.914c0.104,0.104,0.191,0.193,0.296,0.296C292.684,327.105,292.594,327.018,292.49,326.914z"/>
<path fill="#F68B1F" d="M293.083,327.225c0.104,0.09,0.192,0.193,0.296,0.282C293.275,327.417,293.188,327.312,293.083,327.225z"/>
<path fill="#F68B1F" d="M293.379,327.506c0.104,0.104,0.191,0.193,0.296,0.296C293.572,327.699,293.482,327.609,293.379,327.506z"/>
<path fill="#F68B1F" d="M293.973,327.816c0.088,0.09,0.192,0.179,0.281,0.283C294.165,328.01,294.076,327.906,293.973,327.816z"/>
<path fill="#F68B1F" d="M294.268,328.1c0.104,0.088,0.193,0.192,0.297,0.281C294.461,328.292,294.372,328.203,294.268,328.1z"/>
<path fill="#F7921E" d="M295.157,328.691c0.104,0.09,0.192,0.192,0.296,0.283C295.35,328.884,295.261,328.795,295.157,328.691z"/>
<path fill="#F7921E" d="M295.75,329.003c0.104,0.089,0.193,0.179,0.296,0.282C295.943,329.182,295.839,329.092,295.75,329.003z"/>
<path fill="#F7921E" d="M296.936,329.893c0.104,0.088,0.193,0.192,0.297,0.281C297.128,330.07,297.04,329.98,296.936,329.893z"/>
<path fill="#F68B1F" d="M297.825,330.484c0.104,0.09,0.192,0.193,0.296,0.283C298.018,330.678,297.93,330.574,297.825,330.484z"/>
<path fill="#F68B1F" d="M298.121,330.768c0.104,0.104,0.193,0.191,0.296,0.295c-0.104,0.119-0.192,0.119-0.296,0  C298.121,330.959,298.121,330.87,298.121,330.768z"/>
<path fill="#F7921E" d="M285.392,321.594c0.089,0.09,0.193,0.178,0.282,0.281C285.584,321.771,285.481,321.684,285.392,321.594z"/>
<path fill="#F7921E" d="M286.266,322.188c0.09,0.088,0.193,0.178,0.282,0.267C286.459,322.364,286.355,322.275,286.266,322.188z"/>
<path fill="#F7921E" d="M286.577,322.482c0.089,0.09,0.192,0.192,0.282,0.281C286.755,322.661,286.666,322.572,286.577,322.482z"/>
<path fill="#F68B1F" d="M286.859,322.779c0.089,0.089,0.192,0.191,0.281,0.281C287.052,322.957,286.963,322.868,286.859,322.779z"/>
<path fill="#F68B1F" d="M287.154,323.061c0.104,0.104,0.193,0.193,0.297,0.297C287.348,323.253,287.259,323.165,287.154,323.061z"/>
<path fill="#F7921E" d="M287.748,323.372c0.104,0.089,0.193,0.192,0.296,0.28C287.939,323.55,287.852,323.461,287.748,323.372z"/>
<path fill="#F68B1F" d="M288.044,323.652c0.104,0.104,0.192,0.193,0.296,0.297C288.236,323.846,288.148,323.757,288.044,323.652z"/>
<path fill="#F7921E" d="M288.637,323.965c0.09,0.09,0.192,0.178,0.282,0.268C288.83,324.143,288.727,324.055,288.637,323.965z"/>
<path fill="#F7921E" d="M288.948,324.261c0.089,0.089,0.192,0.192,0.282,0.281C289.126,324.439,289.037,324.35,288.948,324.261z"/>
<path fill="#F68B1F" d="M289.525,324.839c0.104,0.104,0.192,0.193,0.297,0.296C289.719,325.032,289.63,324.943,289.525,324.839z"/>
<path fill="#F68B1F" d="M290.119,325.15c0.104,0.088,0.191,0.191,0.296,0.281C290.312,325.328,290.223,325.239,290.119,325.15z"/>
<path fill="#F68B1F" d="M290.416,325.432c0.104,0.104,0.191,0.193,0.296,0.297C290.607,325.625,290.52,325.536,290.416,325.432z"/>
<path fill="#FDB714" d="M409.559,360.967c0.104-0.089,0.192-0.178,0.297-0.267C409.751,360.789,409.662,360.878,409.559,360.967z"/>
<path fill="#FDB714" d="M408.076,361.277c0.104-0.088,0.192-0.192,0.297-0.281C408.27,361.102,408.18,361.189,408.076,361.277z"/>
<path fill="#F8961D" d="M301.085,332.561c0.104,0.088,0.192,0.191,0.296,0.281C301.292,332.736,301.188,332.648,301.085,332.561z"/>
<path fill="#F8961D" d="M301.678,332.841c0.104,0.089,0.192,0.192,0.297,0.281C301.87,333.034,301.781,332.945,301.678,332.841z"/>
<path fill="#F7921E" d="M301.975,333.139c0.104,0,0.191,0.014,0.281,0.028c0.074,0.06,0.09,0.119,0.074,0.179  c-0.016,0.059-0.044,0.088-0.059,0.088C302.182,333.33,302.078,333.241,301.975,333.139z"/>
<path fill="#F8961D" d="M302.271,333.434c0-0.088,0-0.178,0-0.267c0.104,0.089,0.191,0.179,0.295,0.267h-0.147H302.271z"/>
<path fill="#F7921E" d="M302.863,333.73c0.104,0,0.191,0.015,0.296,0.015c0.073,0.06,0.089,0.119,0.073,0.178  c-0.015,0.06-0.043,0.089-0.059,0.089C303.057,333.923,302.967,333.834,302.863,333.73z"/>
<path fill="#F8961D" d="M303.16,334.025c0-0.088,0-0.178,0-0.267c0.104,0.089,0.191,0.179,0.296,0.267h-0.147H303.16z"/>
<path fill="#F7921E" d="M304.049,334.338c0.104,0.089,0.192,0.191,0.297,0.281C304.241,334.529,304.152,334.427,304.049,334.338z"/>
<path fill="#F7921E" d="M304.346,334.619c0.104,0.104,0.191,0.193,0.295,0.296C304.538,334.812,304.449,334.723,304.346,334.619z"/>
<path fill="#F8961D" d="M305.234,334.945c0.104,0.089,0.191,0.178,0.295,0.267C305.427,335.123,305.323,335.034,305.234,334.945z"/>
<path fill="#F8961D" d="M305.531,335.227c0.104,0.09,0.191,0.192,0.296,0.281C305.723,335.404,305.634,335.316,305.531,335.227z"/>
<path fill="#F7921E" d="M306.123,335.523c0.104,0.088,0.193,0.178,0.297,0.267C306.316,335.716,306.227,335.611,306.123,335.523z"/>
<path fill="#F7921E" d="M307.012,336.102c0.104,0.104,0.193,0.192,0.297,0.295C307.205,336.294,307.116,336.205,307.012,336.102z"/>
<path fill="#F8961D" d="M308.198,336.709c0.104,0.089,0.192,0.191,0.296,0.281C308.391,336.887,308.287,336.798,308.198,336.709z"/>
<path fill="#F7921E" d="M308.494,337.005c0.104,0.089,0.193,0.192,0.296,0.281C308.702,337.184,308.598,337.094,308.494,337.005z"/>
<path fill="#F7921E" d="M309.087,337.287c0.104,0.089,0.192,0.193,0.296,0.281c-0.104,0.119-0.191,0.119-0.296,0l0,0  C309.087,337.479,309.087,337.391,309.087,337.287z"/>
<path fill="#F8961D" d="M315.607,340.843c0.236,0,0.459,0.06,0.593,0.296C315.963,341.141,315.741,341.08,315.607,340.843z"/>
<path fill="#F8961D" d="M314.125,339.969c0.104,0.09,0.191,0.193,0.296,0.282C314.318,340.146,314.229,340.059,314.125,339.969z"/>
<path fill="#F8961D" d="M314.422,340.25c0.104,0.104,0.191,0.193,0.296,0.296C314.614,340.443,314.525,340.354,314.422,340.25z"/>
<path fill="#F8961D" d="M315.311,340.547c0.104,0.089,0.192,0.191,0.297,0.282C315.503,340.739,315.415,340.65,315.311,340.547z"/>
<path fill="#F8961D" d="M316.496,341.154c0.104,0.089,0.193,0.193,0.297,0.281C316.689,341.332,316.601,341.243,316.496,341.154z"/>
<path fill="#F7921E" d="M316.793,341.436c0.104,0,0.192,0.016,0.296,0.016c0.074,0.061,0.089,0.119,0.074,0.178  c-0.015,0.061-0.044,0.089-0.06,0.089C316.985,341.628,316.896,341.54,316.793,341.436z"/>
<path fill="#F8961D" d="M317.089,341.732c0-0.09,0-0.178,0-0.268c0.104,0.09,0.193,0.178,0.297,0.268h-0.147H317.089z"/>
<path fill="#F7921E" d="M317.979,342.029c0.104,0,0.192,0,0.297,0.015c0.073,0.06,0.089,0.119,0.073,0.179  c-0.015,0.06-0.044,0.088-0.06,0.088C318.171,342.221,318.082,342.132,317.979,342.029z"/>
<path fill="#F8961D" d="M318.274,342.325c0-0.089,0-0.179,0-0.282c0.104,0.089,0.192,0.178,0.297,0.282h-0.148H318.274z"/>
<path fill="#F7921E" d="M319.46,342.636c0.104,0.089,0.192,0.193,0.297,0.282C319.652,342.829,319.562,342.725,319.46,342.636z"/>
<path fill="#F8961D" d="M320.053,342.918c0.104,0.104,0.192,0.191,0.297,0.296C320.245,343.109,320.156,343.021,320.053,342.918z"/>
<path fill="#F8961D" d="M320.942,343.229c0.104,0.09,0.191,0.179,0.296,0.283C321.135,343.422,321.046,343.333,320.942,343.229z"/>
<path fill="#F8961D" d="M321.238,343.511c0.104,0.104,0.191,0.192,0.297,0.296c-0.104,0-0.193,0-0.297,0  C321.238,343.703,321.238,343.614,321.238,343.511z"/>
<path fill="#F8961D" d="M312.051,338.783c0.104,0.089,0.193,0.193,0.297,0.281C312.244,338.977,312.141,338.873,312.051,338.783z"/>
<path fill="#F7921E" d="M312.939,339.376c0.104,0.089,0.193,0.192,0.297,0.282C313.133,339.568,313.043,339.465,312.939,339.376z"/>
<path fill="#F7921E" d="M313.236,339.658c0.104,0.104,0.191,0.193,0.296,0.296C313.43,339.852,313.34,339.762,313.236,339.658z"/>
<path fill="#FAA31B" d="M347.319,351.809c-0.104-0.088-0.192-0.178-0.296-0.267C347.127,351.631,347.216,351.721,347.319,351.809z"/>
<path fill="#FAA31B" d="M350.876,352.402c-0.104-0.104-0.192-0.193-0.296-0.297C350.684,352.209,350.772,352.298,350.876,352.402z"/>
<path fill="#F8961D" d="M323.906,344.695c0.104,0.104,0.191,0.193,0.296,0.297C324.099,344.889,324.01,344.8,323.906,344.695z"/>
<path fill="#F8961D" d="M326.276,345.585c0.104,0.104,0.192,0.192,0.297,0.296C326.47,345.777,326.381,345.689,326.276,345.585z"/>
<path fill="#F8961D" d="M326.869,345.896c0.104,0.088,0.192,0.191,0.297,0.28C327.062,346.089,326.974,345.984,326.869,345.896z"/>
<path fill="#F8961D" d="M309.977,337.879c-0.104-0.089-0.192-0.178-0.297-0.281C309.784,337.688,309.873,337.791,309.977,337.879z"/>
<path fill="#F8961D" d="M310.568,338.176c-0.104-0.089-0.191-0.191-0.295-0.281C310.376,337.982,310.465,338.072,310.568,338.176z"/>
<path fill="#F8961D" d="M311.162,338.473c-0.104-0.09-0.191-0.179-0.296-0.268C310.969,338.294,311.059,338.383,311.162,338.473z"/>
<path fill="#FAA31B" d="M348.209,366.628c0.236,0,0.444,0.044,0.577,0.252C348.55,366.924,348.342,366.865,348.209,366.628z"/>
<path fill="#F6871F" d="M282.413,319.504c-0.104-0.104-0.192-0.193-0.296-0.296C282.221,319.312,282.31,319.4,282.413,319.504z"/>
<path fill="#F6871F" d="M283.599,320.395c-0.104-0.09-0.192-0.193-0.296-0.283C283.406,320.201,283.495,320.29,283.599,320.395z"/>
<path fill="#F68B1F" d="M284.473,320.986c-0.089-0.09-0.193-0.178-0.282-0.282C284.28,320.793,284.384,320.882,284.473,320.986z"/>
<path fill="#F68B1F" d="M284.784,321.282c-0.104-0.089-0.192-0.192-0.296-0.281C284.592,321.09,284.681,321.18,284.784,321.282z"/>
<path fill="#207FC3" d="M159.729,291.098c0.104-0.297,0.326-0.342,0.593-0.326C160.203,291.021,159.98,291.098,159.729,291.098z"/>
<path fill="#207FC3" d="M159.151,291.452c0.074-0.326,0.311-0.386,0.593-0.37C159.625,291.334,159.403,291.408,159.151,291.452z"/>
<path fill="#1478BD" d="M138.138,337.184c-0.237-2.757,2.905-6.433,7.321-6.758c5.32-0.385,9.024,2.164,9.691,6.684  C154.098,337.391,139.664,337.45,138.138,337.184z"/>
<g>
	<defs>
		<path id="SVGID_1_" d="M443.562,349.288c-26.552,12.577-57.931,16.54-83.611,16.553h-0.03    c-25.681-0.013-57.508-3.976-84.061-16.553v16.324c0,0.209-0.164,0.379-0.364,0.379h-16.337c-0.2,0-0.364-0.17-0.364-0.379    v-69.023c5.46,5.197,11.156,10.461,17.065,15.574c24.712,21.381,53.17,40.106,83.851,40.132    c30.681-0.025,59.14-18.751,83.852-40.132c5.909-5.113,11.605-10.377,17.065-15.574v69.023c0,0.209-0.164,0.379-0.363,0.379    h-16.339c-0.199,0-0.363-0.17-0.363-0.379V349.288z"/>
	</defs>
	<clipPath id="SVGID_2_">
		<use xlink:href="#SVGID_1_" overflow="visible"/>
	</clipPath>
	
		<linearGradient id="SVGID_3_" gradientUnits="userSpaceOnUse" x1="-534.4155" y1="814.0723" x2="-534.0098" y2="814.0723" gradientTransform="matrix(496.9514 0 0 170.8826 265837.5312 -138779.4375)">
		<stop offset="0" style="stop-color:#F47E20"/>
		<stop offset="1" style="stop-color:#FFC30C"/>
	</linearGradient>
	<rect x="258.795" y="296.589" clip-path="url(#SVGID_2_)" fill="url(#SVGID_3_)" width="201.833" height="69.402"/>
</g>
</svg>